<svg version="1.1" id="Layer_1" xmlns="http://www.w3.org/2000/svg" xmlns:xlink="http://www.w3.org/1999/xlink" x="0px" y="0px"
	 width="100%" viewBox="0 0 3840 2160" enable-background="new 0 0 3840 2160" xml:space="preserve">
<path fill="#47704C" opacity="1.000000" stroke="none" 
	d="
M2494.000000,2162.000000 
	C1662.666870,2162.000000 832.333618,2162.000000 2.000334,2162.000000 
	C2.000223,1442.000244 2.000223,722.000549 2.000111,2.000624 
	C1281.999512,2.000416 2561.999023,2.000416 3841.999023,2.000208 
	C3841.999268,721.999329 3841.999268,1441.998657 3841.999512,2161.999023 
	C3393.000000,2162.000000 2944.000000,2162.000000 2494.000000,2162.000000 
M2837.216797,893.742615 
	C2834.739746,889.024414 2832.295166,884.288696 2829.780762,879.590454 
	C2801.183105,826.163696 2780.539551,769.713440 2765.393066,711.131714 
	C2758.803711,685.645081 2754.866699,659.762146 2751.614258,633.673340 
	C2748.319580,607.245850 2746.505127,580.773926 2746.255859,554.182861 
	C2746.197266,547.909302 2747.330322,541.628540 2747.839355,535.344971 
	C2749.178711,518.802673 2750.170166,502.225739 2751.854980,485.719238 
	C2755.211670,452.831238 2763.151367,420.903137 2773.324951,389.534973 
	C2786.625000,348.526611 2804.419678,309.473480 2826.135742,272.264160 
	C2835.017090,257.046204 2844.709229,242.286896 2854.404053,227.563507 
	C2860.806641,217.839828 2867.658447,208.389633 2874.727539,199.136673 
	C2878.266113,194.505264 2879.010742,190.691177 2875.359863,185.734772 
	C2871.224854,180.120743 2868.182129,173.699417 2864.021484,168.107788 
	C2844.567139,141.964127 2824.816406,116.041115 2805.372070,89.890076 
	C2802.309814,85.772011 2799.262451,85.937126 2795.019043,87.351234 
	C2782.719482,91.450165 2770.321533,95.257660 2757.931396,99.080307 
	C2713.117676,112.906570 2667.064209,118.644501 2620.352783,119.727219 
	C2612.424561,119.910980 2604.472412,118.508743 2596.517090,118.172791 
	C2577.912354,117.387100 2559.301514,116.735970 2540.688965,116.154388 
	C2511.078369,115.229134 2481.802734,112.027542 2452.715576,106.028641 
	C2395.670654,94.263855 2342.512207,73.159286 2293.213867,42.220795 
	C2281.937012,35.143761 2270.656982,28.071676 2259.426270,20.922268 
	C2255.868408,18.657381 2252.813965,17.286840 2248.579590,20.291889 
	C2238.816162,27.220406 2228.373779,33.201748 2218.697754,40.241634 
	C2194.618896,57.760521 2168.044922,70.999649 2141.420898,83.730156 
	C2114.167725,96.761459 2085.996582,108.022270 2056.480469,115.531052 
	C2023.208374,123.995308 1989.638184,130.419098 1955.311523,131.939911 
	C1939.011230,132.662079 1922.646851,131.798172 1906.324829,132.200317 
	C1881.232178,132.818527 1856.571533,129.178650 1832.041992,124.811874 
	C1803.195312,119.676590 1774.955444,112.035919 1747.559204,101.485237 
	C1720.173584,90.938591 1693.268066,79.297188 1668.132568,64.066101 
	C1645.649414,50.442204 1623.479126,36.291058 1601.412109,21.999746 
	C1596.256470,18.660767 1592.392944,18.060850 1587.071533,21.654324 
	C1574.112549,30.405413 1561.018066,39.028755 1547.460327,46.800255 
	C1532.471802,55.391872 1517.236450,63.708759 1501.503418,70.803253 
	C1484.561890,78.442726 1467.097290,85.037910 1449.538818,91.165611 
	C1424.699707,99.834106 1399.147217,106.295143 1373.111084,109.862000 
	C1347.148315,113.418808 1320.983887,115.771500 1294.834961,117.618645 
	C1273.285034,119.140907 1251.621948,119.828003 1230.021240,119.621223 
	C1212.455933,119.453079 1194.908325,117.416695 1177.353516,116.198524 
	C1149.705200,114.279938 1122.730835,108.634567 1096.162720,101.034134 
	C1081.781250,96.919945 1067.546631,92.260628 1053.369873,87.479103 
	C1048.315430,85.774338 1044.950195,85.932899 1041.395630,90.697449 
	C1023.893005,114.157730 1005.806458,137.183151 988.362183,160.685806 
	C980.873840,170.774872 974.442932,181.648758 967.581238,192.090515 
	C970.334351,196.337738 972.422668,199.729889 974.676636,203.008240 
	C987.116943,221.102737 1000.059143,238.871475 1011.967041,257.308746 
	C1035.714600,294.077484 1054.365967,333.391785 1069.191040,374.581238 
	C1080.725342,406.627625 1088.717285,439.506622 1093.702026,473.149353 
	C1095.843384,487.602081 1099.053833,502.048767 1099.507812,516.569153 
	C1100.641235,552.827026 1102.286865,589.268555 1097.342773,625.306091 
	C1093.193481,655.549683 1087.410767,685.637939 1080.836670,715.461121 
	C1074.096924,746.036133 1063.590698,775.567688 1052.050537,804.700500 
	C1038.048218,840.049072 1021.885681,874.343445 1002.558472,907.093506 
	C993.255127,922.857971 984.226501,938.871765 973.709412,953.812561 
	C957.245789,977.201050 940.270813,1000.297852 922.281067,1022.521362 
	C908.914856,1039.033325 893.575562,1053.945801 879.185120,1069.634888 
	C877.927734,1071.005737 877.192261,1072.855347 875.019348,1076.471069 
	C879.147095,1079.801758 883.667664,1082.784546 887.387207,1086.557373 
	C913.804749,1113.352051 939.952209,1140.413940 966.450745,1167.127686 
	C971.981567,1172.703491 975.071045,1178.381348 974.250610,1186.465576 
	C973.144775,1197.362549 972.401306,1208.336304 972.283813,1219.285645 
	C972.001404,1245.611206 971.957764,1271.944336 972.267273,1298.269043 
	C972.395996,1309.215454 973.376953,1320.178345 974.494568,1331.080078 
	C976.017395,1345.934448 977.825806,1360.767700 979.903625,1375.554932 
	C982.722290,1395.614746 985.237854,1415.753174 989.093994,1435.622925 
	C995.562927,1468.955078 1004.267395,1501.754761 1016.113892,1533.632812 
	C1023.533630,1553.598633 1030.364502,1573.851440 1039.079346,1593.247803 
	C1047.110718,1611.123047 1057.342773,1628.006592 1066.539551,1645.361694 
	C1091.190552,1691.880005 1123.233276,1733.018433 1158.809814,1771.510864 
	C1194.689575,1810.331055 1235.375122,1843.535889 1279.333618,1872.765503 
	C1310.414062,1893.432129 1342.207153,1912.876587 1376.698975,1927.494995 
	C1402.431396,1938.400757 1427.822754,1950.218262 1453.973389,1960.007690 
	C1508.950073,1980.588135 1565.763794,1994.383545 1623.571167,2004.648682 
	C1668.471191,2012.621704 1713.556274,2018.042358 1759.071289,2020.136841 
	C1765.641602,2020.439087 1771.348511,2022.237061 1776.232300,2026.910767 
	C1781.996216,2032.426514 1788.097412,2037.591919 1794.089111,2042.867554 
	C1802.322266,2050.116699 1810.452026,2057.492188 1818.872437,2064.518066 
	C1834.961670,2077.943115 1851.066284,2091.358887 1867.460815,2104.406250 
	C1883.854614,2117.453125 1900.530029,2130.151367 1917.249023,2142.781494 
	C1923.630981,2147.602783 1924.039307,2147.408203 1930.250366,2142.735596 
	C1941.147339,2134.537598 1952.162109,2126.477051 1962.761108,2117.905762 
	C1988.884766,2096.779053 2014.903442,2075.519043 2040.752319,2054.057617 
	C2052.003662,2044.715942 2062.588623,2034.572754 2073.803955,2025.185425 
	C2076.690918,2022.768799 2080.708496,2020.814819 2084.399170,2020.412231 
	C2095.614746,2019.188965 2106.926270,2018.861328 2118.196289,2018.122803 
	C2129.473145,2017.383789 2140.857178,2017.317017 2151.997803,2015.646606 
	C2183.848877,2010.870850 2215.712158,2006.031860 2247.369873,2000.137817 
	C2337.301270,1983.394043 2422.974854,1954.043701 2503.778564,1911.039429 
	C2524.622314,1899.946045 2545.322266,1888.301880 2564.845703,1875.076416 
	C2590.429443,1857.745850 2616.453613,1840.780640 2638.659668,1818.919434 
	C2660.014648,1797.896240 2682.478760,1777.869995 2702.462158,1755.615845 
	C2728.256104,1726.890381 2751.200928,1695.757080 2771.062500,1662.495605 
	C2786.440918,1636.741333 2800.430664,1610.315796 2812.290039,1582.711914 
	C2825.858398,1551.130493 2836.803955,1518.696655 2845.896973,1485.602051 
	C2854.802979,1453.188110 2861.765137,1420.347900 2866.108154,1387.012207 
	C2868.594238,1367.927002 2870.647217,1348.764771 2872.161133,1329.579224 
	C2873.833008,1308.388428 2875.386963,1287.140869 2875.663574,1265.900757 
	C2875.949219,1243.969238 2874.701416,1222.014893 2873.973389,1200.075439 
	C2873.819824,1195.451538 2873.059082,1190.843140 2872.487305,1186.238892 
	C2871.853271,1181.138062 2872.049316,1176.609375 2876.168457,1172.472656 
	C2887.673096,1160.918579 2898.764404,1148.954346 2910.077637,1137.208618 
	C2929.018799,1117.543335 2948.018799,1097.934814 2966.944092,1078.254272 
	C2968.267822,1076.877563 2969.178223,1075.103027 2970.978027,1072.508423 
	C2917.970459,1019.703552 2873.533203,960.639343 2837.216797,893.742615 
z"/>
<path fill="#211B1A" opacity="1.000000" stroke="none" 
	d="
M2837.643066,894.341919 
	C2873.533203,960.639343 2917.970459,1019.703552 2970.978027,1072.508423 
	C2969.178223,1075.103027 2968.267822,1076.877563 2966.944092,1078.254272 
	C2948.018799,1097.934814 2929.018799,1117.543335 2910.077637,1137.208618 
	C2898.764404,1148.954346 2887.673096,1160.918579 2876.168457,1172.472656 
	C2872.049316,1176.609375 2871.853271,1181.138062 2872.487305,1186.238892 
	C2873.059082,1190.843140 2873.819824,1195.451538 2873.973389,1200.075439 
	C2874.701416,1222.014893 2875.949219,1243.969238 2875.663574,1265.900757 
	C2875.386963,1287.140869 2873.833008,1308.388428 2872.161133,1329.579224 
	C2870.647217,1348.764771 2868.594238,1367.927002 2866.108154,1387.012207 
	C2861.765137,1420.347900 2854.802979,1453.188110 2845.896973,1485.602051 
	C2836.803955,1518.696655 2825.858398,1551.130493 2812.290039,1582.711914 
	C2800.430664,1610.315796 2786.440918,1636.741333 2771.062500,1662.495605 
	C2751.200928,1695.757080 2728.256104,1726.890381 2702.462158,1755.615845 
	C2682.478760,1777.869995 2660.014648,1797.896240 2638.659668,1818.919434 
	C2616.453613,1840.780640 2590.429443,1857.745850 2564.845703,1875.076416 
	C2545.322266,1888.301880 2524.622314,1899.946045 2503.778564,1911.039429 
	C2422.974854,1954.043701 2337.301270,1983.394043 2247.369873,2000.137817 
	C2215.712158,2006.031860 2183.848877,2010.870850 2151.997803,2015.646606 
	C2140.857178,2017.317017 2129.473145,2017.383789 2118.196289,2018.122803 
	C2106.926270,2018.861328 2095.614746,2019.188965 2084.399170,2020.412231 
	C2080.708496,2020.814819 2076.690918,2022.768799 2073.803955,2025.185425 
	C2062.588623,2034.572754 2052.003662,2044.715942 2040.752319,2054.057617 
	C2014.903442,2075.519043 1988.884766,2096.779053 1962.761108,2117.905762 
	C1952.162109,2126.477051 1941.147339,2134.537598 1930.250366,2142.735596 
	C1924.039307,2147.408203 1923.630981,2147.602783 1917.249023,2142.781494 
	C1900.530029,2130.151367 1883.854614,2117.453125 1867.460815,2104.406250 
	C1851.066284,2091.358887 1834.961670,2077.943115 1818.872437,2064.518066 
	C1810.452026,2057.492188 1802.322266,2050.116699 1794.089111,2042.867554 
	C1788.097412,2037.591919 1781.996216,2032.426514 1776.232300,2026.910767 
	C1771.348511,2022.237061 1765.641602,2020.439087 1759.071289,2020.136841 
	C1713.556274,2018.042358 1668.471191,2012.621704 1623.571167,2004.648682 
	C1565.763794,1994.383545 1508.950073,1980.588135 1453.973389,1960.007690 
	C1427.822754,1950.218262 1402.431396,1938.400757 1376.698975,1927.494995 
	C1342.207153,1912.876587 1310.414062,1893.432129 1279.333618,1872.765503 
	C1235.375122,1843.535889 1194.689575,1810.331055 1158.809814,1771.510864 
	C1123.233276,1733.018433 1091.190552,1691.880005 1066.539551,1645.361694 
	C1057.342773,1628.006592 1047.110718,1611.123047 1039.079346,1593.247803 
	C1030.364502,1573.851440 1023.533630,1553.598633 1016.113892,1533.632812 
	C1004.267395,1501.754761 995.562927,1468.955078 989.093994,1435.622925 
	C985.237854,1415.753174 982.722290,1395.614746 979.903625,1375.554932 
	C977.825806,1360.767700 976.017395,1345.934448 974.494568,1331.080078 
	C973.376953,1320.178345 972.395996,1309.215454 972.267273,1298.269043 
	C971.957764,1271.944336 972.001404,1245.611206 972.283813,1219.285645 
	C972.401306,1208.336304 973.144775,1197.362549 974.250610,1186.465576 
	C975.071045,1178.381348 971.981567,1172.703491 966.450745,1167.127686 
	C939.952209,1140.413940 913.804749,1113.352051 887.387207,1086.557373 
	C883.667664,1082.784546 879.147095,1079.801758 875.019348,1076.471069 
	C877.192261,1072.855347 877.927734,1071.005737 879.185120,1069.634888 
	C893.575562,1053.945801 908.914856,1039.033325 922.281067,1022.521362 
	C940.270813,1000.297852 957.245789,977.201050 973.709412,953.812561 
	C984.226501,938.871765 993.255127,922.857971 1002.558472,907.093506 
	C1021.885681,874.343445 1038.048218,840.049072 1052.050537,804.700500 
	C1063.590698,775.567688 1074.096924,746.036133 1080.836670,715.461121 
	C1087.410767,685.637939 1093.193481,655.549683 1097.342773,625.306091 
	C1102.286865,589.268555 1100.641235,552.827026 1099.507812,516.569153 
	C1099.053833,502.048767 1095.843384,487.602081 1093.702026,473.149353 
	C1088.717285,439.506622 1080.725342,406.627625 1069.191040,374.581238 
	C1054.365967,333.391785 1035.714600,294.077484 1011.967041,257.308746 
	C1000.059143,238.871475 987.116943,221.102737 974.676636,203.008240 
	C972.422668,199.729889 970.334351,196.337738 967.581238,192.090515 
	C974.442932,181.648758 980.873840,170.774872 988.362183,160.685806 
	C1005.806458,137.183151 1023.893005,114.157730 1041.395630,90.697449 
	C1044.950195,85.932899 1048.315430,85.774338 1053.369873,87.479103 
	C1067.546631,92.260628 1081.781250,96.919945 1096.162720,101.034134 
	C1122.730835,108.634567 1149.705200,114.279938 1177.353516,116.198524 
	C1194.908325,117.416695 1212.455933,119.453079 1230.021240,119.621223 
	C1251.621948,119.828003 1273.285034,119.140907 1294.834961,117.618645 
	C1320.983887,115.771500 1347.148315,113.418808 1373.111084,109.862000 
	C1399.147217,106.295143 1424.699707,99.834106 1449.538818,91.165611 
	C1467.097290,85.037910 1484.561890,78.442726 1501.503418,70.803253 
	C1517.236450,63.708759 1532.471802,55.391872 1547.460327,46.800255 
	C1561.018066,39.028755 1574.112549,30.405413 1587.071533,21.654324 
	C1592.392944,18.060850 1596.256470,18.660767 1601.412109,21.999746 
	C1623.479126,36.291058 1645.649414,50.442204 1668.132568,64.066101 
	C1693.268066,79.297188 1720.173584,90.938591 1747.559204,101.485237 
	C1774.955444,112.035919 1803.195312,119.676590 1832.041992,124.811874 
	C1856.571533,129.178650 1881.232178,132.818527 1906.324829,132.200317 
	C1922.646851,131.798172 1939.011230,132.662079 1955.311523,131.939911 
	C1989.638184,130.419098 2023.208374,123.995308 2056.480469,115.531052 
	C2085.996582,108.022270 2114.167725,96.761459 2141.420898,83.730156 
	C2168.044922,70.999649 2194.618896,57.760521 2218.697754,40.241634 
	C2228.373779,33.201748 2238.816162,27.220406 2248.579590,20.291889 
	C2252.813965,17.286840 2255.868408,18.657381 2259.426270,20.922268 
	C2270.656982,28.071676 2281.937012,35.143761 2293.213867,42.220795 
	C2342.512207,73.159286 2395.670654,94.263855 2452.715576,106.028641 
	C2481.802734,112.027542 2511.078369,115.229134 2540.688965,116.154388 
	C2559.301514,116.735970 2577.912354,117.387100 2596.517090,118.172791 
	C2604.472412,118.508743 2612.424561,119.910980 2620.352783,119.727219 
	C2667.064209,118.644501 2713.117676,112.906570 2757.931396,99.080307 
	C2770.321533,95.257660 2782.719482,91.450165 2795.019043,87.351234 
	C2799.262451,85.937126 2802.309814,85.772011 2805.372070,89.890076 
	C2824.816406,116.041115 2844.567139,141.964127 2864.021484,168.107788 
	C2868.182129,173.699417 2871.224854,180.120743 2875.359863,185.734772 
	C2879.010742,190.691177 2878.266113,194.505264 2874.727539,199.136673 
	C2867.658447,208.389633 2860.806641,217.839828 2854.404053,227.563507 
	C2844.709229,242.286896 2835.017090,257.046204 2826.135742,272.264160 
	C2804.419678,309.473480 2786.625000,348.526611 2773.324951,389.534973 
	C2763.151367,420.903137 2755.211670,452.831238 2751.854980,485.719238 
	C2750.170166,502.225739 2749.178711,518.802673 2747.839355,535.344971 
	C2747.330322,541.628540 2746.197266,547.909302 2746.255859,554.182861 
	C2746.505127,580.773926 2748.319580,607.245850 2751.614258,633.673340 
	C2754.866699,659.762146 2758.803711,685.645081 2765.393066,711.131714 
	C2780.539551,769.713440 2801.183105,826.163696 2829.780762,879.590454 
	C2832.295166,884.288696 2834.739746,889.024414 2837.643066,894.341919 
M2675.873047,1742.859619 
	C2735.373535,1676.835449 2778.746338,1601.451050 2806.906250,1517.221436 
	C2833.659912,1437.197998 2845.512939,1354.791504 2846.280762,1270.634033 
	C2846.581787,1237.648071 2846.459473,1204.652222 2842.305176,1171.850952 
	C2841.659180,1166.750610 2844.037598,1163.745117 2847.106445,1160.559937 
	C2863.058838,1144.001831 2878.928955,1127.364380 2894.891846,1110.816406 
	C2906.896240,1098.371948 2918.997559,1086.020508 2931.268799,1073.408691 
	C2929.507324,1071.224731 2928.191162,1069.346069 2926.632324,1067.696655 
	C2892.861572,1031.970825 2863.290527,992.996582 2837.307617,951.323059 
	C2771.621094,845.968933 2729.185791,732.583618 2719.395264,608.006226 
	C2715.381104,556.921997 2717.634033,506.111847 2726.767334,455.701172 
	C2742.633545,368.129089 2777.376221,288.426971 2827.937012,215.428268 
	C2833.411621,207.524307 2839.029541,199.719437 2844.843750,191.497009 
	C2828.792480,165.643936 2807.880371,144.106049 2790.405029,119.933716 
	C2786.693115,121.103836 2783.851318,121.976753 2781.023926,122.894348 
	C2739.983154,136.213547 2698.001221,145.489456 2654.920166,147.583847 
	C2601.623535,150.174835 2548.361084,148.348007 2495.239746,142.384918 
	C2414.715820,133.345779 2340.486084,106.836250 2272.052734,63.697540 
	C2265.893311,59.814770 2259.748535,55.908512 2253.721191,52.091885 
	C2247.886475,55.982681 2242.636230,59.510433 2237.359863,62.998455 
	C2153.918945,118.157364 2063.574219,153.714294 1962.903198,160.671799 
	C1898.757935,165.104950 1835.835449,158.967560 1774.115356,140.973999 
	C1712.468384,123.001732 1655.986572,94.249138 1602.929321,58.425797 
	C1599.700928,56.246052 1596.403564,54.168365 1593.378540,52.199554 
	C1584.653564,57.668461 1576.776489,62.658672 1568.848633,67.566864 
	C1499.383911,110.572861 1423.858154,135.981659 1342.618530,143.365356 
	C1307.162598,146.587891 1271.457153,147.302902 1235.842651,148.482941 
	C1185.831665,150.139954 1136.889771,142.704391 1088.756104,129.494415 
	C1078.209473,126.599953 1067.777222,123.288933 1056.638794,119.975311 
	C1039.860962,144.849243 1017.946472,165.666443 1003.174011,191.203232 
	C1014.475464,207.989761 1025.455933,223.480927 1035.598633,239.502502 
	C1087.252808,321.096375 1118.483398,409.834229 1127.559204,506.100189 
	C1133.291992,566.905029 1129.602051,627.341187 1117.326538,687.081421 
	C1089.370972,823.130493 1028.509399,943.068420 938.543762,1048.515503 
	C931.465210,1056.812134 924.007080,1064.784912 916.346436,1073.331055 
	C920.205872,1077.274780 923.718323,1080.792236 927.152527,1084.384766 
	C951.330627,1109.677368 975.443481,1135.032715 999.712036,1160.238281 
	C1003.433289,1164.103149 1004.856812,1167.892822 1004.513916,1173.506592 
	C1003.113037,1196.440552 1002.033508,1219.411987 1001.597839,1242.384033 
	C1000.067383,1323.084229 1008.203735,1402.673950 1029.735718,1480.680054 
	C1060.346191,1591.576294 1115.149048,1688.435913 1197.362793,1769.308228 
	C1264.559082,1835.407959 1343.072021,1884.199829 1429.989990,1919.812378 
	C1539.664673,1964.749023 1654.307861,1986.471558 1772.303711,1992.084839 
	C1778.236816,1992.366943 1782.817139,1993.952393 1787.503540,1997.939453 
	C1825.056641,2029.888672 1862.852295,2061.553955 1900.696045,2093.159668 
	C1908.043945,2099.296387 1915.925659,2104.794434 1923.653076,2110.656738 
	C1926.700806,2108.472168 1929.165649,2106.814697 1931.514038,2105.006104 
	C1975.360596,2071.239990 2018.066528,2036.102905 2058.845947,1998.668335 
	C2062.897217,1994.949341 2066.807861,1992.377319 2072.750977,1992.153320 
	C2121.739746,1990.306519 2170.332520,1984.732300 2218.634766,1976.328369 
	C2283.450195,1965.051636 2346.659912,1948.050659 2407.823486,1923.756348 
	C2509.898682,1883.212036 2600.361572,1825.348999 2675.873047,1742.859619 
z"/>
<path fill="#F6B800" opacity="1.000000" stroke="none" 
	d="
M2675.384277,1743.367676 
	C2600.361572,1825.348999 2509.898682,1883.212036 2407.823486,1923.756348 
	C2346.659912,1948.050659 2283.450195,1965.051636 2218.634766,1976.328369 
	C2170.332520,1984.732300 2121.739746,1990.306519 2072.750977,1992.153320 
	C2066.807861,1992.377319 2062.897217,1994.949341 2058.845947,1998.668335 
	C2018.066528,2036.102905 1975.360596,2071.239990 1931.514038,2105.006104 
	C1929.165649,2106.814697 1926.700806,2108.472168 1923.653076,2110.656738 
	C1915.925659,2104.794434 1908.043945,2099.296387 1900.696045,2093.159668 
	C1862.852295,2061.553955 1825.056641,2029.888672 1787.503540,1997.939453 
	C1782.817139,1993.952393 1778.236816,1992.366943 1772.303711,1992.084839 
	C1654.307861,1986.471558 1539.664673,1964.749023 1429.989990,1919.812378 
	C1343.072021,1884.199829 1264.559082,1835.407959 1197.362793,1769.308228 
	C1115.149048,1688.435913 1060.346191,1591.576294 1029.735718,1480.680054 
	C1008.203735,1402.673950 1000.067383,1323.084229 1001.597839,1242.384033 
	C1002.033508,1219.411987 1003.113037,1196.440552 1004.513916,1173.506592 
	C1004.856812,1167.892822 1003.433289,1164.103149 999.712036,1160.238281 
	C975.443481,1135.032715 951.330627,1109.677368 927.152527,1084.384766 
	C923.718323,1080.792236 920.205872,1077.274780 916.346436,1073.331055 
	C924.007080,1064.784912 931.465210,1056.812134 938.543762,1048.515503 
	C1028.509399,943.068420 1089.370972,823.130493 1117.326538,687.081421 
	C1129.602051,627.341187 1133.291992,566.905029 1127.559204,506.100189 
	C1118.483398,409.834229 1087.252808,321.096375 1035.598633,239.502502 
	C1025.455933,223.480927 1014.475464,207.989761 1003.174011,191.203232 
	C1017.946472,165.666443 1039.860962,144.849243 1056.638794,119.975311 
	C1067.777222,123.288933 1078.209473,126.599953 1088.756104,129.494415 
	C1136.889771,142.704391 1185.831665,150.139954 1235.842651,148.482941 
	C1271.457153,147.302902 1307.162598,146.587891 1342.618530,143.365356 
	C1423.858154,135.981659 1499.383911,110.572861 1568.848633,67.566864 
	C1576.776489,62.658672 1584.653564,57.668461 1593.378540,52.199554 
	C1596.403564,54.168365 1599.700928,56.246052 1602.929321,58.425797 
	C1655.986572,94.249138 1712.468384,123.001732 1774.115356,140.973999 
	C1835.835449,158.967560 1898.757935,165.104950 1962.903198,160.671799 
	C2063.574219,153.714294 2153.918945,118.157364 2237.359863,62.998455 
	C2242.636230,59.510433 2247.886475,55.982681 2253.721191,52.091885 
	C2259.748535,55.908512 2265.893311,59.814770 2272.052734,63.697540 
	C2340.486084,106.836250 2414.715820,133.345779 2495.239746,142.384918 
	C2548.361084,148.348007 2601.623535,150.174835 2654.920166,147.583847 
	C2698.001221,145.489456 2739.983154,136.213547 2781.023926,122.894348 
	C2783.851318,121.976753 2786.693115,121.103836 2790.405029,119.933716 
	C2807.880371,144.106049 2828.792480,165.643936 2844.843750,191.497009 
	C2839.029541,199.719437 2833.411621,207.524307 2827.937012,215.428268 
	C2777.376221,288.426971 2742.633545,368.129089 2726.767334,455.701172 
	C2717.634033,506.111847 2715.381104,556.921997 2719.395264,608.006226 
	C2729.185791,732.583618 2771.621094,845.968933 2837.307617,951.323059 
	C2863.290527,992.996582 2892.861572,1031.970825 2926.632324,1067.696655 
	C2928.191162,1069.346069 2929.507324,1071.224731 2931.268799,1073.408691 
	C2918.997559,1086.020508 2906.896240,1098.371948 2894.891846,1110.816406 
	C2878.928955,1127.364380 2863.058838,1144.001831 2847.106445,1160.559937 
	C2844.037598,1163.745117 2841.659180,1166.750610 2842.305176,1171.850952 
	C2846.459473,1204.652222 2846.581787,1237.648071 2846.280762,1270.634033 
	C2845.512939,1354.791504 2833.659912,1437.197998 2806.906250,1517.221436 
	C2778.746338,1601.451050 2735.373535,1676.835449 2675.384277,1743.367676 
M2265.541504,145.517700 
	C2262.076660,143.586838 2258.612061,141.655975 2254.712646,139.482941 
	C2153.172607,202.328735 2043.217896,237.125259 1923.560181,237.150070 
	C1803.617065,237.174942 1693.333496,202.458878 1593.038818,140.399673 
	C1569.462524,151.669296 1547.431152,162.665985 1525.010742,172.802261 
	C1495.522949,186.133667 1464.849487,196.278351 1433.386841,203.776016 
	C1388.200439,214.544083 1342.228760,220.240891 1295.874023,221.774017 
	C1260.954224,222.928986 1225.953491,223.003372 1191.027710,222.081314 
	C1171.467041,221.564911 1151.974243,218.138489 1132.474365,215.824905 
	C1124.441284,214.871826 1116.470093,213.397659 1106.532837,211.860794 
	C1109.833618,217.727859 1112.047363,221.752045 1114.342407,225.729141 
	C1161.577759,307.580872 1191.391724,395.195709 1201.599609,489.306763 
	C1209.058105,558.070740 1205.764038,626.298767 1192.287598,694.151489 
	C1180.432739,753.839417 1162.663452,811.588013 1137.772461,867.133728 
	C1136.344482,870.320679 1135.266846,873.664795 1133.915161,877.228638 
	C1660.307373,877.228638 2185.438721,877.228638 2710.828857,877.228638 
	C2710.628174,875.579529 2710.686523,874.549255 2710.360107,873.660339 
	C2709.328369,870.851807 2708.228516,868.062622 2707.021484,865.324707 
	C2683.564209,812.109436 2666.180664,756.926941 2654.270752,700.056885 
	C2646.334473,662.162109 2642.944092,623.708008 2640.808594,585.053833 
	C2637.545166,525.984619 2644.078857,467.912140 2657.367676,410.565979 
	C2672.812988,343.914062 2698.698486,281.303375 2733.268311,222.273743 
	C2735.070312,219.197052 2736.680664,216.008118 2739.340820,211.098236 
	C2732.899658,212.027573 2728.364502,212.454819 2723.926514,213.358398 
	C2690.192139,220.227066 2656.044922,223.332275 2621.700684,223.089996 
	C2591.069336,222.873901 2560.421631,221.770752 2529.828369,220.157654 
	C2476.421143,217.341599 2423.956299,208.954712 2372.951904,192.221176 
	C2336.138428,180.143433 2300.500244,165.507324 2265.541504,145.517700 
M1485.000000,1172.122437 
	C1350.776001,1172.122437 1216.552124,1172.122437 1081.289795,1172.122437 
	C1079.681519,1184.689453 1077.369141,1196.491699 1076.780396,1208.379395 
	C1073.073120,1283.236694 1077.322510,1357.542725 1093.799072,1430.862671 
	C1107.913208,1493.670410 1130.292603,1553.186646 1163.737427,1608.476929 
	C1194.033081,1658.560791 1231.005371,1703.030762 1275.772339,1740.493652 
	C1321.685791,1778.915894 1372.209839,1810.575684 1426.969482,1835.081421 
	C1481.229492,1859.363770 1537.606689,1877.384888 1595.466675,1890.860474 
	C1635.075317,1900.085083 1675.074463,1907.297852 1715.499146,1911.508667 
	C1749.606323,1915.061523 1783.841187,1918.395142 1818.088745,1919.355469 
	C1869.039795,1920.784180 1920.051758,1920.022827 1971.037842,1920.218384 
	C2033.409424,1920.457642 2095.517822,1916.961670 2157.343018,1908.304077 
	C2221.818359,1899.275513 2284.908691,1884.608398 2346.688965,1864.097412 
	C2415.151611,1841.368286 2478.930420,1809.625732 2537.265381,1766.974243 
	C2611.894043,1712.409668 2669.876221,1644.147217 2709.233643,1560.282837 
	C2727.256348,1521.878784 2741.476318,1482.156006 2751.605713,1440.955444 
	C2760.852783,1403.343506 2765.958252,1365.082397 2769.338623,1326.583252 
	C2773.046387,1284.354614 2773.389648,1242.065186 2769.781006,1199.801514 
	C2769.001465,1190.672363 2767.329102,1181.619507 2766.011230,1172.122559 
	C2338.830811,1172.122559 1912.915405,1172.122559 1485.000000,1172.122437 
M2223.125488,921.374512 
	C2217.179688,920.721924 2211.237305,919.546997 2205.287109,919.504028 
	C2173.624023,919.275696 2141.958984,919.313904 2110.294434,919.331604 
	C2108.444336,919.332642 2106.594971,919.962219 2104.789062,920.291321 
	C2104.789062,991.142822 2104.789062,1061.300781 2104.789062,1131.434448 
	C2106.331787,1131.807983 2107.273682,1132.235596 2108.215088,1132.234863 
	C2142.211670,1132.210938 2176.211670,1132.421143 2210.202881,1131.955811 
	C2224.066895,1131.765869 2236.925781,1127.199097 2248.893311,1119.953003 
	C2281.260742,1100.354736 2288.796387,1037.833862 2250.415283,1018.633606 
	C2249.616211,1018.233765 2249.010498,1017.446289 2247.134766,1015.811096 
	C2248.579834,1015.006592 2249.811279,1014.446838 2250.907715,1013.691345 
	C2278.064941,994.982788 2276.831055,940.201721 2235.283936,924.927551 
	C2231.854492,923.666748 2228.293457,922.765137 2223.125488,921.374512 
M1971.625977,1079.439697 
	C1964.245728,1075.122803 1956.865479,1070.805908 1949.290527,1066.375000 
	C1946.307373,1070.337769 1943.989868,1073.558716 1941.526489,1076.663940 
	C1930.283081,1090.837158 1915.703125,1095.804443 1898.085693,1092.276733 
	C1882.322754,1089.120605 1872.470215,1078.795532 1865.749023,1065.041992 
	C1856.616943,1046.355347 1856.115723,1026.522949 1859.112061,1006.451294 
	C1860.597656,996.500305 1864.138428,987.179749 1869.619751,978.633667 
	C1887.529419,950.709839 1928.307861,952.433655 1942.932373,976.997131 
	C1943.736328,978.347290 1944.912720,979.475708 1946.450195,981.363647 
	C1959.428711,975.191162 1972.120239,969.155151 1985.366089,962.855469 
	C1975.510498,942.999634 1961.899902,928.989075 1942.128418,921.915833 
	C1897.847168,906.074219 1846.385620,920.585632 1824.406250,972.001892 
	C1808.584351,1009.014160 1809.651855,1046.691895 1825.478516,1083.552979 
	C1829.339478,1092.545532 1835.301636,1101.042725 1841.825806,1108.415161 
	C1871.447021,1141.888062 1922.256592,1141.683960 1951.892822,1124.328125 
	C1966.666138,1115.676636 1977.118164,1103.141968 1984.401489,1087.194458 
	C1980.217896,1084.629272 1976.562866,1082.388062 1971.625977,1079.439697 
M1652.976318,1001.271362 
	C1646.312256,1001.271484 1639.634766,1001.536682 1632.988037,1001.197937 
	C1626.205078,1000.852112 1619.172241,1002.833313 1612.697754,999.811401 
	C1612.697754,987.104614 1612.697754,974.891724 1612.697754,961.559448 
	C1649.007568,961.559448 1684.803345,961.559448 1721.073975,961.559448 
	C1721.073975,946.996826 1721.073975,933.565857 1721.073975,920.235901 
	C1707.314697,918.282959 1577.081665,918.932129 1570.007080,920.925110 
	C1570.007080,991.033813 1570.007080,1061.177002 1570.007080,1131.481323 
	C1584.287964,1131.481323 1597.998169,1131.481323 1612.682373,1131.481323 
	C1612.682373,1101.492432 1612.682373,1072.341187 1612.682373,1042.277832 
	C1634.148193,1042.277832 1654.662354,1042.277832 1675.508301,1042.277832 
	C1675.508301,1028.232910 1675.508301,1015.136292 1675.508301,1001.268738 
	C1668.206299,1001.268738 1661.587158,1001.268738 1652.976318,1001.271362 
z"/>
<path fill="#2B211C" opacity="1.000000" stroke="none" 
	d="
M2266.194580,145.865906 
	C2300.500244,165.507324 2336.138428,180.143433 2372.951904,192.221176 
	C2423.956299,208.954712 2476.421143,217.341599 2529.828369,220.157654 
	C2560.421631,221.770752 2591.069336,222.873901 2621.700684,223.089996 
	C2656.044922,223.332275 2690.192139,220.227066 2723.926514,213.358398 
	C2728.364502,212.454819 2732.899658,212.027573 2739.340820,211.098236 
	C2736.680664,216.008118 2735.070312,219.197052 2733.268311,222.273743 
	C2698.698486,281.303375 2672.812988,343.914062 2657.367676,410.565979 
	C2644.078857,467.912140 2637.545166,525.984619 2640.808594,585.053833 
	C2642.944092,623.708008 2646.334473,662.162109 2654.270752,700.056885 
	C2666.180664,756.926941 2683.564209,812.109436 2707.021484,865.324707 
	C2708.228516,868.062622 2709.328369,870.851807 2710.360107,873.660339 
	C2710.686523,874.549255 2710.628174,875.579529 2710.828857,877.228638 
	C2185.438721,877.228638 1660.307373,877.228638 1133.915161,877.228638 
	C1135.266846,873.664795 1136.344482,870.320679 1137.772461,867.133728 
	C1162.663452,811.588013 1180.432739,753.839417 1192.287598,694.151489 
	C1205.764038,626.298767 1209.058105,558.070740 1201.599609,489.306763 
	C1191.391724,395.195709 1161.577759,307.580872 1114.342407,225.729141 
	C1112.047363,221.752045 1109.833618,217.727859 1106.532837,211.860794 
	C1116.470093,213.397659 1124.441284,214.871826 1132.474365,215.824905 
	C1151.974243,218.138489 1171.467041,221.564911 1191.027710,222.081314 
	C1225.953491,223.003372 1260.954224,222.928986 1295.874023,221.774017 
	C1342.228760,220.240891 1388.200439,214.544083 1433.386841,203.776016 
	C1464.849487,196.278351 1495.522949,186.133667 1525.010742,172.802261 
	C1547.431152,162.665985 1569.462524,151.669296 1593.038818,140.399673 
	C1693.333496,202.458878 1803.617065,237.174942 1923.560181,237.150070 
	C2043.217896,237.125259 2153.172607,202.328735 2254.712646,139.482941 
	C2258.612061,141.655975 2262.076660,143.586838 2266.194580,145.865906 
M2715.056152,235.055542 
	C2716.429688,232.423981 2717.803223,229.792419 2720.068359,225.452530 
	C2716.603271,226.716187 2715.010254,227.297165 2711.779297,227.957458 
	C2676.461914,232.804276 2641.005615,235.519577 2605.331543,234.951874 
	C2595.028076,234.787903 2584.723877,234.707352 2572.537598,234.154602 
	C2558.583252,233.481903 2544.624023,232.897903 2530.676025,232.110901 
	C2517.424805,231.363190 2504.186035,230.403152 2489.477783,228.662704 
	C2473.228271,226.040695 2456.954834,223.558472 2440.737793,220.748047 
	C2429.730225,218.840378 2418.802490,216.472244 2406.352539,213.819183 
	C2378.193848,207.208542 2351.351562,196.597549 2323.138184,186.036102 
	C2306.164062,177.818069 2289.118896,169.743546 2272.234375,161.345413 
	C2251.534424,151.049728 2257.487305,152.491470 2238.316650,163.760559 
	C2230.376221,167.924225 2222.545410,172.314682 2214.474121,176.206421 
	C2195.045898,185.573944 2175.505371,194.707962 2154.525879,203.983673 
	C2143.655029,207.969559 2132.887207,212.270493 2121.888916,215.866730 
	C2105.866211,221.105835 2089.677734,225.837814 2071.898193,230.983292 
	C2057.025146,234.031525 2042.189819,237.281479 2027.267456,240.065277 
	C2014.966064,242.360153 2002.561523,244.102905 1988.434082,245.885742 
	C1975.479858,246.797806 1962.537231,247.962875 1949.568237,248.550308 
	C1936.782227,249.129456 1923.969849,249.123703 1911.044922,249.377029 
	C1911.044922,455.504639 1911.044922,660.211914 1911.044922,865.494080 
	C1937.818359,865.494080 1964.031250,865.494080 1992.063110,865.808960 
	C2019.274902,865.704956 2046.486694,865.600952 2075.580566,865.857849 
	C2102.463867,865.751709 2129.347412,865.645630 2158.053467,865.840393 
	C2185.412109,865.726257 2212.770752,865.612122 2241.962891,865.818054 
	C2269.244385,865.723328 2296.525635,865.628662 2325.683838,865.833984 
	C2353.023438,865.723328 2380.362793,865.612610 2409.603760,865.857849 
	C2436.635498,865.733948 2463.667480,865.610107 2492.458984,865.806580 
	C2519.768555,865.695435 2547.078369,865.584351 2576.183838,865.799988 
	C2615.712646,865.799988 2655.241699,865.799988 2695.747559,865.799988 
	C2694.232910,861.690613 2693.087646,858.653137 2691.991211,855.598145 
	C2682.105469,828.044128 2671.396240,800.751465 2662.531494,772.872437 
	C2647.149414,724.494751 2638.345947,674.669556 2633.319336,624.211609 
	C2630.245117,593.352722 2629.173828,562.399902 2631.897949,531.421021 
	C2634.085205,506.547516 2634.854492,481.449402 2638.754883,456.847687 
	C2646.376465,408.774658 2657.962158,361.515472 2676.938721,316.518341 
	C2688.441162,289.244080 2701.625000,262.678925 2715.056152,235.055542 
M1674.389160,420.529999 
	C1674.678101,417.242004 1675.217041,413.954193 1675.219360,410.665985 
	C1675.268188,342.773224 1675.134277,274.879883 1675.423340,206.988327 
	C1675.456299,199.234299 1673.112061,195.232437 1665.984497,191.756622 
	C1643.587158,180.834167 1621.453491,169.317398 1599.686523,157.189728 
	C1593.497681,153.741684 1589.254761,153.951019 1583.370850,157.143723 
	C1554.700439,172.700562 1525.408325,186.990631 1494.316772,197.163071 
	C1476.326904,203.048904 1458.200806,208.518845 1438.519775,214.046722 
	C1336.622925,236.964920 1233.785522,239.397858 1129.281250,227.572205 
	C1130.444702,229.869995 1131.117065,231.265106 1131.847046,232.629318 
	C1148.801636,264.315613 1165.215576,296.324127 1176.203491,330.623322 
	C1186.335449,362.251007 1195.057129,394.330505 1204.322510,427.786194 
	C1208.053833,455.753235 1213.062988,483.623932 1215.181274,511.712646 
	C1217.628662,544.163513 1217.814819,576.803406 1214.641846,609.332520 
	C1213.030884,625.845703 1211.704834,642.386780 1209.841553,660.400391 
	C1199.108154,730.970886 1179.432251,799.036438 1151.093750,865.631042 
	C1154.784302,865.631042 1157.061401,865.630981 1159.338501,865.630981 
	C1250.316284,865.630920 1341.294067,865.634888 1432.271851,865.611328 
	C1434.924194,865.610657 1437.576416,865.320068 1442.041870,865.510986 
	C1517.747437,865.545959 1593.453003,865.582947 1669.158569,865.598877 
	C1670.476318,865.599121 1671.794067,865.344727 1675.124023,865.579529 
	C1749.346802,865.579529 1823.569580,865.579529 1898.626709,865.579529 
	C1898.626709,861.594177 1898.626709,858.655640 1898.626709,855.717041 
	C1898.626709,793.059753 1898.635498,730.402405 1898.598755,667.745117 
	C1898.597046,664.767761 1898.190796,661.790588 1898.350586,656.866455 
	C1898.387817,581.607544 1898.427734,506.348602 1898.443726,431.089691 
	C1898.444092,429.436035 1898.169312,427.782288 1898.490967,424.286957 
	C1898.490967,365.800537 1898.490967,307.314117 1898.490967,247.999756 
	C1859.328125,245.778336 1821.241333,240.951675 1783.671875,232.150543 
	C1745.945801,223.312683 1709.646851,210.160873 1672.807129,195.522202 
	C1672.575806,200.028030 1672.294678,202.960770 1672.293823,205.893600 
	C1672.273315,275.107574 1672.276611,344.321533 1672.311646,413.535492 
	C1672.312988,416.175751 1672.674927,418.815857 1674.389160,420.529999 
z"/>
<path fill="#292020" opacity="1.000000" stroke="none" 
	d="
M1486.000000,1172.122559 
	C1912.915405,1172.122559 2338.830811,1172.122559 2766.011230,1172.122559 
	C2767.329102,1181.619507 2769.001465,1190.672363 2769.781006,1199.801514 
	C2773.389648,1242.065186 2773.046387,1284.354614 2769.338623,1326.583252 
	C2765.958252,1365.082397 2760.852783,1403.343506 2751.605713,1440.955444 
	C2741.476318,1482.156006 2727.256348,1521.878784 2709.233643,1560.282837 
	C2669.876221,1644.147217 2611.894043,1712.409668 2537.265381,1766.974243 
	C2478.930420,1809.625732 2415.151611,1841.368286 2346.688965,1864.097412 
	C2284.908691,1884.608398 2221.818359,1899.275513 2157.343018,1908.304077 
	C2095.517822,1916.961670 2033.409424,1920.457642 1971.037842,1920.218384 
	C1920.051758,1920.022827 1869.039795,1920.784180 1818.088745,1919.355469 
	C1783.841187,1918.395142 1749.606323,1915.061523 1715.499146,1911.508667 
	C1675.074463,1907.297852 1635.075317,1900.085083 1595.466675,1890.860474 
	C1537.606689,1877.384888 1481.229492,1859.363770 1426.969482,1835.081421 
	C1372.209839,1810.575684 1321.685791,1778.915894 1275.772339,1740.493652 
	C1231.005371,1703.030762 1194.033081,1658.560791 1163.737427,1608.476929 
	C1130.292603,1553.186646 1107.913208,1493.670410 1093.799072,1430.862671 
	C1077.322510,1357.542725 1073.073120,1283.236694 1076.780396,1208.379395 
	C1077.369141,1196.491699 1079.681519,1184.689453 1081.289795,1172.122437 
	C1216.552124,1172.122437 1350.776001,1172.122437 1486.000000,1172.122559 
M1807.722656,1906.993530 
	C1821.644287,1907.396729 1835.565186,1908.112305 1849.487671,1908.147583 
	C1903.304688,1908.283691 1957.122925,1908.343628 2010.939209,1908.100952 
	C2023.848267,1908.042725 2036.751587,1906.710571 2051.537842,1906.197754 
	C2075.389160,1904.370850 2099.238770,1902.522949 2123.092041,1900.721191 
	C2168.967041,1897.255615 2213.907959,1888.128418 2258.667969,1878.064209 
	C2270.618652,1875.377197 2282.259766,1871.312866 2295.575439,1867.798218 
	C2361.728516,1849.799194 2424.900391,1824.424072 2484.020264,1789.658203 
	C2502.876709,1778.569824 2520.202148,1764.878296 2539.541748,1751.961426 
	C2540.929443,1751.059937 2542.403564,1750.266968 2543.692383,1749.241211 
	C2571.343994,1727.234009 2597.209229,1703.424072 2620.745605,1676.924438 
	C2648.127686,1646.095215 2670.579834,1611.963623 2690.052002,1575.932251 
	C2711.651123,1535.965332 2726.420410,1493.161743 2738.210693,1449.342285 
	C2749.042480,1409.085327 2754.760742,1368.020386 2758.589111,1326.560303 
	C2762.148193,1288.014038 2762.726074,1249.505005 2760.069580,1210.943604 
	C2759.463867,1202.148560 2757.237549,1193.465210 2755.642090,1184.052002 
	C2751.222168,1184.052002 2747.947754,1184.051880 2744.673340,1184.052002 
	C2679.074219,1184.052124 2613.475098,1184.044434 2547.875977,1184.074951 
	C2544.558105,1184.076538 2541.240234,1184.407593 2536.072510,1184.344360 
	C2534.414062,1184.283081 2532.755615,1184.168213 2531.097168,1184.167969 
	C2454.725830,1184.157593 2378.354492,1184.153076 2301.983154,1184.172485 
	C2299.333008,1184.173218 2296.683105,1184.423462 2292.175049,1184.246216 
	C2290.845947,1184.185059 2289.516602,1184.070557 2288.187500,1184.070435 
	C2211.314209,1184.059082 2134.440918,1184.052368 2057.567627,1184.074829 
	C2054.915771,1184.075562 2052.264160,1184.379150 2047.801392,1184.317993 
	C1968.653687,1184.273438 1889.505981,1184.227173 1810.358276,1184.198975 
	C1809.034058,1184.198486 1807.709717,1184.421509 1804.487427,1184.218018 
	C1726.880615,1184.164917 1649.273682,1184.106079 1571.666870,1184.087646 
	C1569.417480,1184.087158 1567.167969,1184.515869 1565.125854,1184.723389 
	C1562.838989,1194.159668 1562.959473,1863.157837 1565.332397,1871.866821 
	C1578.154785,1874.972046 1591.277832,1878.768677 1604.643921,1881.264160 
	C1636.983032,1887.301636 1669.377808,1893.094849 1701.867188,1898.249146 
	C1717.275146,1900.693604 1732.928955,1901.742188 1748.510376,1902.898315 
	C1767.736328,1904.324829 1787.002808,1905.204956 1807.722656,1906.993530 
M1319.538330,1371.000000 
	C1319.538574,1496.310913 1319.631836,1621.622192 1319.349121,1746.932373 
	C1319.328247,1756.214355 1321.862793,1761.998535 1329.772095,1767.419556 
	C1399.570435,1815.258667 1476.674072,1846.577026 1557.612671,1869.409058 
	C1558.772705,1869.736328 1560.105713,1869.449951 1561.333374,1869.449951 
	C1561.766968,1868.030273 1562.304565,1867.091919 1562.304810,1866.153198 
	C1562.377563,1641.194458 1562.414062,1416.235596 1562.421021,1191.276855 
	C1562.421021,1189.640137 1562.020142,1188.000244 1561.756836,1186.369751 
	C1561.710327,1186.081177 1561.445435,1185.807251 1561.231201,1185.572144 
	C1561.009033,1185.328125 1560.725952,1185.139526 1560.295288,1184.782227 
	C1480.627686,1184.782227 1400.787476,1184.782227 1319.537476,1184.782227 
	C1319.537476,1246.598633 1319.537476,1307.799316 1319.538330,1371.000000 
M1318.472778,1687.000000 
	C1318.413452,1520.721069 1318.354858,1354.442261 1318.272827,1188.163330 
	C1318.272583,1187.525391 1317.969116,1186.875732 1317.743286,1186.255005 
	C1317.637573,1185.964111 1317.401489,1185.707764 1317.183838,1185.473877 
	C1316.958374,1185.231445 1316.683472,1185.035156 1316.105469,1184.541016 
	C1241.880493,1184.541016 1167.331543,1184.541016 1091.534424,1184.541016 
	C1090.354004,1193.275146 1088.383423,1201.714600 1088.199829,1210.192749 
	C1086.814697,1274.157227 1087.435303,1337.964355 1099.744385,1401.182739 
	C1110.226562,1455.018433 1125.459595,1507.137329 1149.025391,1556.826782 
	C1167.135254,1595.011719 1190.336670,1629.889526 1216.220459,1662.989624 
	C1243.244507,1697.547607 1276.092651,1726.309326 1310.376831,1753.441772 
	C1312.330688,1754.988281 1314.713745,1755.992676 1318.473877,1758.157227 
	C1318.473877,1734.053833 1318.473877,1711.526978 1318.472778,1687.000000 
z"/>
<path fill="#221B1A" opacity="1.000000" stroke="none" 
	d="
M2223.959473,921.535522 
	C2228.293457,922.765137 2231.854492,923.666748 2235.283936,924.927551 
	C2276.831055,940.201721 2278.064941,994.982788 2250.907715,1013.691345 
	C2249.811279,1014.446838 2248.579834,1015.006592 2247.134766,1015.811096 
	C2249.010498,1017.446289 2249.616211,1018.233765 2250.415283,1018.633606 
	C2288.796387,1037.833862 2281.260742,1100.354736 2248.893311,1119.953003 
	C2236.925781,1127.199097 2224.066895,1131.765869 2210.202881,1131.955811 
	C2176.211670,1132.421143 2142.211670,1132.210938 2108.215088,1132.234863 
	C2107.273682,1132.235596 2106.331787,1131.807983 2104.789062,1131.434448 
	C2104.789062,1061.300781 2104.789062,991.142822 2104.789062,920.291321 
	C2106.594971,919.962219 2108.444336,919.332642 2110.294434,919.331604 
	C2141.958984,919.313904 2173.624023,919.275696 2205.287109,919.504028 
	C2211.237305,919.546997 2217.179688,920.721924 2223.959473,921.535522 
M2177.003906,1091.907349 
	C2186.329590,1091.879761 2195.673828,1092.217285 2204.977051,1091.747437 
	C2223.461182,1090.813843 2232.753174,1080.437744 2232.212158,1061.984619 
	C2231.790039,1047.587524 2225.436523,1040.116821 2211.032227,1037.414795 
	C2207.458008,1036.744263 2203.774414,1036.393921 2200.137695,1036.367065 
	C2184.816895,1036.253662 2169.494873,1036.285522 2154.173828,1036.350586 
	C2151.620850,1036.361328 2149.069580,1036.799805 2146.525879,1037.039795 
	C2146.525879,1055.515381 2146.525879,1073.309204 2146.525879,1091.907471 
	C2156.477783,1091.907471 2165.743408,1091.907471 2177.003906,1091.907349 
M2145.827881,990.766418 
	C2146.111328,993.263000 2146.395020,995.759644 2146.729736,998.707275 
	C2156.489014,998.707275 2165.445801,998.748535 2174.402100,998.696655 
	C2185.032959,998.635132 2195.684082,998.868591 2206.288818,998.289185 
	C2218.882812,997.601196 2225.514893,991.170349 2226.014648,980.251587 
	C2226.565674,968.209229 2221.017334,961.362000 2208.414062,958.933167 
	C2205.182861,958.310425 2201.814941,958.229065 2198.507324,958.201355 
	C2187.874268,958.112610 2177.240234,958.164734 2166.606445,958.163452 
	C2160.044434,958.162598 2153.482422,958.163269 2145.826416,958.163269 
	C2145.826416,969.068542 2145.826416,978.941956 2145.827881,990.766418 
z"/>
<path fill="#221B1A" opacity="1.000000" stroke="none" 
	d="
M1972.266846,1079.793335 
	C1976.562866,1082.388062 1980.217896,1084.629272 1984.401489,1087.194458 
	C1977.118164,1103.141968 1966.666138,1115.676636 1951.892822,1124.328125 
	C1922.256592,1141.683960 1871.447021,1141.888062 1841.825806,1108.415161 
	C1835.301636,1101.042725 1829.339478,1092.545532 1825.478516,1083.552979 
	C1809.651855,1046.691895 1808.584351,1009.014160 1824.406250,972.001892 
	C1846.385620,920.585632 1897.847168,906.074219 1942.128418,921.915833 
	C1961.899902,928.989075 1975.510498,942.999634 1985.366089,962.855469 
	C1972.120239,969.155151 1959.428711,975.191162 1946.450195,981.363647 
	C1944.912720,979.475708 1943.736328,978.347290 1942.932373,976.997131 
	C1928.307861,952.433655 1887.529419,950.709839 1869.619751,978.633667 
	C1864.138428,987.179749 1860.597656,996.500305 1859.112061,1006.451294 
	C1856.115723,1026.522949 1856.616943,1046.355347 1865.749023,1065.041992 
	C1872.470215,1078.795532 1882.322754,1089.120605 1898.085693,1092.276733 
	C1915.703125,1095.804443 1930.283081,1090.837158 1941.526489,1076.663940 
	C1943.989868,1073.558716 1946.307373,1070.337769 1949.290527,1066.375000 
	C1956.865479,1070.805908 1964.245728,1075.122803 1972.266846,1079.793335 
z"/>
<path fill="#211A1A" opacity="1.000000" stroke="none" 
	d="
M1653.972168,1001.270020 
	C1661.587158,1001.268738 1668.206299,1001.268738 1675.508301,1001.268738 
	C1675.508301,1015.136292 1675.508301,1028.232910 1675.508301,1042.277832 
	C1654.662354,1042.277832 1634.148193,1042.277832 1612.682373,1042.277832 
	C1612.682373,1072.341187 1612.682373,1101.492432 1612.682373,1131.481323 
	C1597.998169,1131.481323 1584.287964,1131.481323 1570.007080,1131.481323 
	C1570.007080,1061.177002 1570.007080,991.033813 1570.007080,920.925110 
	C1577.081665,918.932129 1707.314697,918.282959 1721.073975,920.235901 
	C1721.073975,933.565857 1721.073975,946.996826 1721.073975,961.559448 
	C1684.803345,961.559448 1649.007568,961.559448 1612.697754,961.559448 
	C1612.697754,974.891724 1612.697754,987.104614 1612.697754,999.811401 
	C1619.172241,1002.833313 1626.205078,1000.852112 1632.988037,1001.197937 
	C1639.634766,1001.536682 1646.312256,1001.271484 1653.972168,1001.270020 
z"/>
<path fill="#FF1335" opacity="1.000000" stroke="none" 
	d="
M1210.250000,658.915222 
	C1211.704834,642.386780 1213.030884,625.845703 1214.641846,609.332520 
	C1217.814819,576.803406 1217.628662,544.163513 1215.181274,511.712646 
	C1213.062988,483.623932 1208.053833,455.753235 1205.266602,426.928650 
	C1283.981079,426.071136 1361.751587,426.071136 1440.136108,426.071136 
	C1440.136108,354.564392 1440.136108,284.370178 1440.136108,214.175980 
	C1458.200806,208.518845 1476.326904,203.048904 1494.316772,197.163071 
	C1525.408325,186.990631 1554.700439,172.700562 1583.370850,157.143723 
	C1589.254761,153.951019 1593.497681,153.741684 1599.686523,157.189728 
	C1621.453491,169.317398 1643.587158,180.834167 1665.984497,191.756622 
	C1673.112061,195.232437 1675.456299,199.234299 1675.423340,206.988327 
	C1675.134277,274.879883 1675.268188,342.773224 1675.219360,410.665985 
	C1675.217041,413.954193 1674.678101,417.242004 1673.844238,421.935822 
	C1675.789795,428.328278 1680.384521,425.917084 1683.901978,425.926514 
	C1755.275146,426.118591 1826.649048,426.102783 1898.022705,426.128601 
	C1898.169312,427.782288 1898.444092,429.436035 1898.443726,431.089691 
	C1898.427734,506.348602 1898.387817,581.607544 1897.223633,657.897400 
	C1822.312622,658.928345 1748.528320,658.928345 1673.455811,658.928345 
	C1673.857788,663.119568 1674.156128,666.231079 1674.525269,669.387695 
	C1674.816162,672.402100 1675.226074,675.371216 1675.228027,678.340576 
	C1675.266357,734.194519 1675.268555,790.048462 1675.222900,845.902405 
	C1675.220459,848.847351 1674.728760,851.791870 1673.960815,856.435791 
	C1673.341797,860.492981 1673.226807,862.851074 1673.111816,865.209167 
	C1671.794067,865.344727 1670.476318,865.599121 1669.158569,865.598877 
	C1593.453003,865.582947 1517.747437,865.545959 1441.100098,864.461243 
	C1440.158447,795.558350 1440.158447,727.705261 1440.158447,658.915222 
	C1362.729614,658.915222 1286.489868,658.915222 1210.250000,658.915222 
z"/>
<path fill="#FFDC01" opacity="1.000000" stroke="none" 
	d="
M2323.807129,865.533997 
	C2296.525635,865.628662 2269.244385,865.723328 2241.072510,864.755249 
	C2240.166260,634.589539 2240.152832,405.486725 2240.117188,176.383896 
	C2240.116455,172.062866 2239.858398,167.741852 2239.720459,163.420837 
	C2257.487305,152.491470 2251.534424,151.049728 2272.234375,161.345413 
	C2289.118896,169.743546 2306.164062,177.818069 2323.575928,187.443878 
	C2323.982178,193.515732 2323.923096,198.179810 2323.922852,202.843903 
	C2323.918457,418.743378 2323.919678,634.642822 2323.914307,850.542297 
	C2323.914307,855.539551 2323.844727,860.536743 2323.807129,865.533997 
z"/>
<path fill="#FF1434" opacity="1.000000" stroke="none" 
	d="
M2239.018555,163.590698 
	C2239.858398,167.741852 2240.116455,172.062866 2240.117188,176.383896 
	C2240.152832,405.486725 2240.166260,634.589539 2240.155762,864.595154 
	C2212.770752,865.612122 2185.412109,865.726257 2157.146484,864.785767 
	C2156.256836,645.794861 2156.274902,427.858673 2156.279541,209.922455 
	C2156.279785,207.927017 2156.103516,205.931580 2156.010010,203.936127 
	C2175.505371,194.707962 2195.045898,185.573944 2214.474121,176.206421 
	C2222.545410,172.314682 2230.376221,167.924225 2239.018555,163.590698 
z"/>
<path fill="#FF1434" opacity="1.000000" stroke="none" 
	d="
M2324.745605,865.683960 
	C2323.844727,860.536743 2323.914307,855.539551 2323.914307,850.542297 
	C2323.919678,634.642822 2323.918457,418.743378 2323.922852,202.843903 
	C2323.923096,198.179810 2323.982178,193.515732 2324.126953,187.827606 
	C2351.351562,196.597549 2378.193848,207.208542 2407.065674,214.979858 
	C2407.755127,220.802353 2407.710205,225.464188 2407.710205,230.126007 
	C2407.705078,441.917999 2407.703857,653.709961 2407.702393,865.501953 
	C2380.362793,865.612610 2353.023438,865.723328 2324.745605,865.683960 
z"/>
<path fill="#FF1434" opacity="1.000000" stroke="none" 
	d="
M2574.387939,865.473145 
	C2547.078369,865.584351 2519.768555,865.695435 2491.531738,864.749390 
	C2490.610352,657.296326 2490.614258,450.900421 2490.635742,244.504501 
	C2490.636230,239.515137 2490.835205,234.525818 2490.941406,229.536484 
	C2504.186035,230.403152 2517.424805,231.363190 2530.676025,232.110901 
	C2544.624023,232.897903 2558.583252,233.481903 2573.467041,235.269531 
	C2574.393555,446.080688 2574.390869,655.776917 2574.387939,865.473145 
z"/>
<path fill="#FFDE00" opacity="1.000000" stroke="none" 
	d="
M2155.268066,203.959900 
	C2156.103516,205.931580 2156.279785,207.927017 2156.279541,209.922455 
	C2156.274902,427.858673 2156.256836,645.794861 2156.235352,864.635254 
	C2129.347412,865.645630 2102.463867,865.751709 2074.666992,864.776489 
	C2073.746826,657.723511 2073.741211,451.751923 2073.726318,245.780365 
	C2073.726074,240.782242 2073.617920,235.784134 2073.559814,230.786011 
	C2089.677734,225.837814 2105.866211,221.105835 2121.888916,215.866730 
	C2132.887207,212.270493 2143.655029,207.969559 2155.268066,203.959900 
z"/>
<path fill="#FEFDFD" opacity="1.000000" stroke="none" 
	d="
M1210.045776,659.657837 
	C1286.489868,658.915222 1362.729614,658.915222 1440.158447,658.915222 
	C1440.158447,727.705261 1440.158447,795.558350 1440.193604,864.288086 
	C1437.576416,865.320068 1434.924194,865.610657 1432.271851,865.611328 
	C1341.294067,865.634888 1250.316284,865.630920 1159.338501,865.630981 
	C1157.061401,865.630981 1154.784302,865.631042 1151.093750,865.631042 
	C1179.432251,799.036438 1199.108154,730.970886 1210.045776,659.657837 
z"/>
<path fill="#FFDE00" opacity="1.000000" stroke="none" 
	d="
M2490.209473,229.099594 
	C2490.835205,234.525818 2490.636230,239.515137 2490.635742,244.504501 
	C2490.614258,450.900421 2490.610352,657.296326 2490.651855,864.589233 
	C2463.667480,865.610107 2436.635498,865.733948 2408.653076,865.679932 
	C2407.703857,653.709961 2407.705078,441.917999 2407.710205,230.126007 
	C2407.710205,225.464188 2407.755127,220.802353 2407.808838,215.225281 
	C2418.802490,216.472244 2429.730225,218.840378 2440.737793,220.748047 
	C2456.954834,223.558472 2473.228271,226.040695 2490.209473,229.099594 
z"/>
<path fill="#FF1433" opacity="1.000000" stroke="none" 
	d="
M2072.729004,230.884644 
	C2073.617920,235.784134 2073.726074,240.782242 2073.726318,245.780365 
	C2073.741211,451.751923 2073.746826,657.723511 2073.726074,864.596008 
	C2046.486694,865.600952 2019.274902,865.704956 1991.093018,864.752441 
	C1990.130005,859.697021 1990.142700,855.698120 1990.143066,851.699280 
	C1990.163574,649.829651 1990.183105,447.959991 1990.202759,246.090332 
	C2002.561523,244.102905 2014.966064,242.360153 2027.267456,240.065277 
	C2042.189819,237.281479 2057.025146,234.031525 2072.729004,230.884644 
z"/>
<path fill="#FEFEFE" opacity="1.000000" stroke="none" 
	d="
M1439.327881,214.111359 
	C1440.136108,284.370178 1440.136108,354.564392 1440.136108,426.071136 
	C1361.751587,426.071136 1283.981079,426.071136 1205.305298,426.141052 
	C1195.057129,394.330505 1186.335449,362.251007 1176.203491,330.623322 
	C1165.215576,296.324127 1148.801636,264.315613 1131.847046,232.629318 
	C1131.117065,231.265106 1130.444702,229.869995 1129.281250,227.572205 
	C1233.785522,239.397858 1336.622925,236.964920 1439.327881,214.111359 
z"/>
<path fill="#FEDB00" opacity="1.000000" stroke="none" 
	d="
M2575.285889,865.636597 
	C2574.390869,655.776917 2574.393555,446.080688 2574.408203,235.486511 
	C2584.723877,234.707352 2595.028076,234.787903 2605.331543,234.951874 
	C2641.005615,235.519577 2676.461914,232.804276 2712.662109,228.710663 
	C2713.714355,231.574310 2713.884033,233.684738 2714.053711,235.795197 
	C2701.625000,262.678925 2688.441162,289.244080 2676.938721,316.518341 
	C2657.962158,361.515472 2646.376465,408.774658 2638.754883,456.847687 
	C2634.854492,481.449402 2634.085205,506.547516 2631.897949,531.421021 
	C2629.173828,562.399902 2630.245117,593.352722 2633.319336,624.211609 
	C2638.345947,674.669556 2647.149414,724.494751 2662.531494,772.872437 
	C2671.396240,800.751465 2682.105469,828.044128 2691.991211,855.598145 
	C2693.087646,858.653137 2694.232910,861.690613 2695.747559,865.799988 
	C2655.241699,865.799988 2615.712646,865.799988 2575.285889,865.636597 
z"/>
<path fill="#FDDC00" opacity="1.000000" stroke="none" 
	d="
M1989.318359,245.988037 
	C1990.183105,447.959991 1990.163574,649.829651 1990.143066,851.699280 
	C1990.142700,855.698120 1990.130005,859.697021 1990.183594,864.594971 
	C1964.031250,865.494080 1937.818359,865.494080 1911.044922,865.494080 
	C1911.044922,660.211914 1911.044922,455.504639 1911.044922,249.377029 
	C1923.969849,249.123703 1936.782227,249.129456 1949.568237,248.550308 
	C1962.537231,247.962875 1975.479858,246.797806 1989.318359,245.988037 
z"/>
<path fill="#FEFEFE" opacity="1.000000" stroke="none" 
	d="
M1674.454590,669.342590 
	C1674.156128,666.231079 1673.857788,663.119568 1673.455811,658.928345 
	C1748.528320,658.928345 1822.312622,658.928345 1897.034912,658.870850 
	C1898.190796,661.790588 1898.597046,664.767761 1898.598755,667.745117 
	C1898.635498,730.402405 1898.626709,793.059753 1898.626709,855.717041 
	C1898.626709,858.655640 1898.626709,861.594177 1898.626709,865.579529 
	C1823.569580,865.579529 1749.346802,865.579529 1674.117920,865.394348 
	C1673.226807,862.851074 1673.341797,860.492981 1673.823486,857.356750 
	C1673.543945,854.657715 1672.336304,852.737732 1672.333374,850.815857 
	C1672.241943,791.691650 1672.260986,732.567383 1672.311035,673.443054 
	C1672.312622,671.581421 1672.822754,669.720215 1673.095703,667.858765 
	C1673.523315,668.022156 1674.017700,668.104858 1674.351562,668.381470 
	C1674.529297,668.528748 1674.429199,669.011353 1674.454590,669.342590 
z"/>
<path fill="#FFFEFE" opacity="1.000000" stroke="none" 
	d="
M1898.256836,425.207764 
	C1826.649048,426.102783 1755.275146,426.118591 1683.901978,425.926514 
	C1680.384521,425.917084 1675.789795,428.328278 1673.083984,422.398834 
	C1672.674927,418.815857 1672.312988,416.175751 1672.311646,413.535492 
	C1672.276611,344.321533 1672.273315,275.107574 1672.293823,205.893600 
	C1672.294678,202.960770 1672.575806,200.028030 1672.807129,195.522202 
	C1709.646851,210.160873 1745.945801,223.312683 1783.671875,232.150543 
	C1821.241333,240.951675 1859.328125,245.778336 1898.490967,247.999756 
	C1898.490967,307.314117 1898.490967,365.800537 1898.256836,425.207764 
z"/>
<path fill="#BDAEB1" opacity="1.000000" stroke="none" 
	d="
M2714.554932,235.425354 
	C2713.884033,233.684738 2713.714355,231.574310 2713.480957,228.671005 
	C2715.010254,227.297165 2716.603271,226.716187 2720.068359,225.452530 
	C2717.803223,229.792419 2716.429688,232.423981 2714.554932,235.425354 
z"/>
<path fill="#BF0046" opacity="1.000000" stroke="none" 
	d="
M2538.228027,1752.377686 
	C2520.202148,1764.878296 2502.876709,1778.569824 2484.020264,1789.658203 
	C2424.900391,1824.424072 2361.728516,1849.799194 2294.770996,1866.914062 
	C2293.958740,1772.102539 2293.935547,1678.175171 2293.946533,1584.247681 
	C2293.962158,1451.017578 2294.002930,1317.787476 2294.032959,1184.557373 
	C2296.683105,1184.423462 2299.333008,1184.173218 2301.983154,1184.172485 
	C2378.354492,1184.153076 2454.725830,1184.157593 2531.097168,1184.167969 
	C2532.755615,1184.168213 2534.414062,1184.283081 2537.016113,1185.346436 
	C2537.967529,1370.702026 2537.973877,1555.055664 2537.994141,1739.409180 
	C2537.994629,1743.731934 2538.146484,1748.054810 2538.228027,1752.377686 
z"/>
<path fill="#BF0046" opacity="1.000000" stroke="none" 
	d="
M1319.537842,1370.000000 
	C1319.537476,1307.799316 1319.537476,1246.598633 1319.537476,1184.782227 
	C1400.787476,1184.782227 1480.627686,1184.782227 1560.295288,1184.782227 
	C1560.725952,1185.139526 1561.009033,1185.328125 1561.231201,1185.572144 
	C1561.445435,1185.807251 1561.710327,1186.081177 1561.756836,1186.369751 
	C1562.020142,1188.000244 1562.421021,1189.640137 1562.421021,1191.276855 
	C1562.414062,1416.235596 1562.377563,1641.194458 1562.304810,1866.153198 
	C1562.304565,1867.091919 1561.766968,1868.030273 1561.333374,1869.449951 
	C1560.105713,1869.449951 1558.772705,1869.736328 1557.612671,1869.409058 
	C1476.674072,1846.577026 1399.570435,1815.258667 1329.772095,1767.419556 
	C1321.862793,1761.998535 1319.328247,1756.214355 1319.349121,1746.932373 
	C1319.631836,1621.622192 1319.538574,1496.310913 1319.537842,1370.000000 
z"/>
<path fill="#0054A7" opacity="1.000000" stroke="none" 
	d="
M2293.104004,1184.401855 
	C2294.002930,1317.787476 2293.962158,1451.017578 2293.946533,1584.247681 
	C2293.935547,1678.175171 2293.958740,1772.102539 2294.004883,1866.955322 
	C2282.259766,1871.312866 2270.618652,1875.377197 2258.667969,1878.064209 
	C2213.907959,1888.128418 2168.967041,1897.255615 2123.092041,1900.721191 
	C2099.238770,1902.522949 2075.389160,1904.370850 2050.608398,1905.146973 
	C2049.608154,1847.899658 2049.537598,1791.703125 2049.822266,1735.083740 
	C2050.818115,1733.785400 2051.458252,1732.909912 2052.048096,1732.014160 
	C2051.997803,1731.994019 2052.010986,1732.101685 2052.710205,1732.074219 
	C2056.318115,1729.393188 2059.227051,1726.739624 2062.075684,1724.050537 
	C2062.015381,1724.014893 2062.058838,1724.147583 2062.754395,1724.417236 
	C2066.577393,1722.048462 2071.793213,1721.520996 2072.083740,1716.050171 
	C2072.020508,1716.020142 2072.061279,1716.153931 2072.731445,1716.489990 
	C2084.293213,1708.536743 2094.349121,1699.415405 2102.040771,1687.993774 
	C2101.984863,1687.991089 2102.011475,1688.099854 2102.654541,1687.821045 
	C2103.585449,1686.374634 2103.873047,1685.207275 2104.093262,1684.031250 
	C2104.025879,1684.022583 2104.073242,1684.150146 2104.733398,1684.418213 
	C2106.962646,1682.462524 2108.531982,1680.238892 2110.047852,1678.007568 
	C2109.994141,1677.999756 2110.031006,1678.101685 2110.658691,1677.838867 
	C2111.574463,1676.395264 2111.862305,1675.214478 2112.084229,1674.023560 
	C2112.018066,1674.013428 2112.084717,1674.129395 2112.818604,1674.189941 
	C2114.420166,1672.176758 2115.287598,1670.103027 2116.088623,1668.022705 
	C2116.021973,1668.016357 2116.073730,1668.139648 2116.812744,1668.259155 
	C2118.419434,1666.261108 2119.287109,1664.143555 2120.087891,1662.022461 
	C2120.020752,1662.018799 2120.070312,1662.143311 2120.760742,1662.315674 
	C2123.002441,1659.653564 2124.553467,1656.818970 2126.044189,1653.988281 
	C2125.983887,1653.992188 2126.015381,1654.108765 2126.620605,1653.787598 
	C2135.716553,1638.540161 2143.522217,1623.326782 2147.423340,1605.572021 
	C2148.593994,1599.399414 2153.194092,1594.568481 2151.192383,1588.390381 
	C2156.630615,1575.905151 2157.642334,1563.031128 2157.876221,1549.088379 
	C2157.891113,1537.412598 2157.737305,1526.662231 2157.682129,1515.129883 
	C2157.065430,1509.576660 2156.350342,1504.805420 2155.704590,1499.272461 
	C2155.009521,1495.010132 2154.244873,1491.509521 2153.436035,1487.296143 
	C2152.290527,1482.977417 2151.189209,1479.371582 2150.127686,1475.038330 
	C2149.344238,1471.538696 2148.520996,1468.766357 2147.658203,1465.490723 
	C2147.095947,1464.629517 2146.572754,1464.271729 2146.018311,1463.955688 
	C2145.987061,1463.997559 2146.089844,1464.015869 2146.196289,1463.324219 
	C2145.548584,1461.062134 2144.794434,1459.491943 2144.015381,1457.963257 
	C2143.990234,1458.004883 2144.087402,1458.010864 2144.163086,1457.304443 
	C2143.456787,1454.409790 2142.674805,1452.221436 2141.809570,1449.511963 
	C2141.172363,1448.627075 2140.618652,1448.263306 2140.027344,1447.940308 
	C2139.989990,1447.981079 2140.095947,1448.013184 2140.178467,1447.274658 
	C2139.519531,1445.329590 2138.778076,1444.123169 2138.007324,1442.958008 
	C2137.978027,1442.999268 2138.074707,1443.029053 2138.087402,1442.200928 
	C2137.385254,1439.908691 2136.670654,1438.444458 2135.829346,1436.383179 
	C2134.007812,1432.560425 2132.312988,1429.334473 2130.307373,1425.483521 
	C2129.346191,1424.213623 2128.696045,1423.568848 2128.051758,1422.967651 
	C2128.057861,1423.011108 2128.099609,1422.931885 2128.041016,1422.138916 
	C2127.330078,1420.544312 2126.678223,1419.742798 2126.054443,1418.915527 
	C2126.082764,1418.889771 2126.044922,1418.823364 2125.942383,1418.186768 
	C2125.240723,1416.999878 2124.641113,1416.449707 2124.022217,1415.952148 
	C2124.002686,1416.004761 2124.114014,1415.990112 2124.099365,1415.336182 
	C2123.352051,1413.596191 2122.619629,1412.509888 2121.584473,1410.853760 
	C2109.741455,1393.165771 2097.018799,1377.040039 2081.085693,1363.747314 
	C2070.665039,1355.053467 2059.969238,1346.689575 2049.507812,1337.236084 
	C2049.616699,1285.709839 2049.614502,1235.125732 2049.612305,1184.541504 
	C2052.264160,1184.379150 2054.915771,1184.075562 2057.567627,1184.074829 
	C2134.440918,1184.052368 2211.314209,1184.059082 2288.187500,1184.070435 
	C2289.516602,1184.070557 2290.845947,1184.185059 2293.104004,1184.401855 
z"/>
<path fill="#0054A7" opacity="1.000000" stroke="none" 
	d="
M1806.251709,1906.321167 
	C1787.002808,1905.204956 1767.736328,1904.324829 1748.510376,1902.898315 
	C1732.928955,1901.742188 1717.275146,1900.693604 1701.867188,1898.249146 
	C1669.377808,1893.094849 1636.983032,1887.301636 1604.643921,1881.264160 
	C1591.277832,1878.768677 1578.154785,1874.972046 1565.332397,1871.866821 
	C1562.959473,1863.157837 1562.838989,1194.159668 1565.125854,1184.723389 
	C1567.167969,1184.515869 1569.417480,1184.087158 1571.666870,1184.087646 
	C1649.273682,1184.106079 1726.880615,1184.164917 1805.411621,1185.265991 
	C1806.408325,1234.841675 1806.480957,1283.369385 1806.082520,1332.419434 
	C1801.178955,1335.897949 1796.760010,1338.874878 1792.311890,1341.807251 
	C1758.718750,1363.953857 1733.187500,1393.405151 1714.936035,1429.009766 
	C1692.560791,1472.658936 1685.214478,1519.075073 1691.790771,1567.651855 
	C1698.330200,1615.955078 1718.438110,1657.928833 1751.030273,1694.073364 
	C1767.224121,1712.032104 1786.137817,1726.622192 1806.360107,1740.582275 
	C1806.307007,1796.468872 1806.279419,1851.395020 1806.251709,1906.321167 
z"/>
<path fill="#0054A7" opacity="1.000000" stroke="none" 
	d="
M1318.473389,1688.000000 
	C1318.473877,1711.526978 1318.473877,1734.053833 1318.473877,1758.157227 
	C1314.713745,1755.992676 1312.330688,1754.988281 1310.376831,1753.441772 
	C1276.092651,1726.309326 1243.244507,1697.547607 1216.220459,1662.989624 
	C1190.336670,1629.889526 1167.135254,1595.011719 1149.025391,1556.826782 
	C1125.459595,1507.137329 1110.226562,1455.018433 1099.744385,1401.182739 
	C1087.435303,1337.964355 1086.814697,1274.157227 1088.199829,1210.192749 
	C1088.383423,1201.714600 1090.354004,1193.275146 1091.534424,1184.541016 
	C1167.331543,1184.541016 1241.880493,1184.541016 1316.105469,1184.541016 
	C1316.683472,1185.035156 1316.958374,1185.231445 1317.183838,1185.473877 
	C1317.401489,1185.707764 1317.637573,1185.964111 1317.743286,1186.255005 
	C1317.969116,1186.875732 1318.272583,1187.525391 1318.272827,1188.163330 
	C1318.354858,1354.442261 1318.413452,1520.721069 1318.473389,1688.000000 
z"/>
<path fill="#0054A6" opacity="1.000000" stroke="none" 
	d="
M2538.884766,1752.169434 
	C2538.146484,1748.054810 2537.994629,1743.731934 2537.994141,1739.409180 
	C2537.973877,1555.055664 2537.967529,1370.702026 2537.940918,1185.466797 
	C2541.240234,1184.407593 2544.558105,1184.076538 2547.875977,1184.074951 
	C2613.475098,1184.044434 2679.074219,1184.052124 2744.673340,1184.052002 
	C2747.947754,1184.051880 2751.222168,1184.052002 2755.642090,1184.052002 
	C2757.237549,1193.465210 2759.463867,1202.148560 2760.069580,1210.943604 
	C2762.726074,1249.505005 2762.148193,1288.014038 2758.589111,1326.560303 
	C2754.760742,1368.020386 2749.042480,1409.085327 2738.210693,1449.342285 
	C2726.420410,1493.161743 2711.651123,1535.965332 2690.052002,1575.932251 
	C2670.579834,1611.963623 2648.127686,1646.095215 2620.745605,1676.924438 
	C2597.209229,1703.424072 2571.343994,1727.234009 2543.692383,1749.241211 
	C2542.403564,1750.266968 2540.929443,1751.059937 2538.884766,1752.169434 
z"/>
<path fill="#BE0146" opacity="1.000000" stroke="none" 
	d="
M1806.987183,1906.657349 
	C1806.279419,1851.395020 1806.307007,1796.468872 1807.057373,1740.736816 
	C1812.850098,1742.328247 1817.797607,1745.041260 1823.013062,1747.063110 
	C1838.015747,1752.879395 1853.126953,1758.416016 1868.756104,1764.529053 
	C1878.222656,1766.544434 1887.128662,1768.093506 1896.900391,1769.768555 
	C1900.077393,1770.014648 1902.412354,1769.963867 1904.696289,1770.281128 
	C1927.598145,1773.460449 1950.160767,1770.692627 1972.635864,1766.453491 
	C1975.406982,1765.930664 1978.904419,1766.296509 1980.213257,1762.017334 
	C1981.490601,1761.835083 1982.003784,1761.778687 1983.216064,1761.873535 
	C1985.951660,1761.321655 1987.988037,1760.618408 1990.015869,1759.965820 
	C1990.007324,1760.016357 1989.918579,1759.964966 1990.682617,1760.174072 
	C1995.399536,1759.908325 1999.734131,1760.336304 2002.013062,1755.964844 
	C2002.007446,1756.015259 2001.917969,1755.967651 2002.697754,1756.175537 
	C2010.280396,1754.958008 2017.351929,1754.119019 2021.981445,1747.955444 
	C2022.000366,1748.000000 2021.935059,1747.929688 2022.597412,1748.135498 
	C2024.161377,1747.531006 2025.063110,1746.720581 2025.982544,1745.955078 
	C2026.000244,1746.000000 2025.935059,1745.929688 2026.597290,1746.135498 
	C2028.161255,1745.530884 2029.062988,1744.720459 2029.982300,1743.955078 
	C2030.000000,1744.000000 2029.934937,1743.929688 2030.596802,1744.135498 
	C2032.157593,1743.530640 2033.056519,1742.719971 2033.977783,1741.954590 
	C2034.000000,1742.000000 2033.935181,1741.923218 2034.653564,1742.123779 
	C2038.779663,1740.918335 2043.196655,1740.864868 2043.981323,1735.957397 
	C2044.002563,1735.999512 2043.933105,1735.936890 2044.604004,1736.192139 
	C2046.672241,1736.133789 2048.069580,1735.820312 2049.467041,1735.506836 
	C2049.537598,1791.703125 2049.608154,1847.899658 2049.667969,1905.030273 
	C2036.751587,1906.710571 2023.848267,1908.042725 2010.939209,1908.100952 
	C1957.122925,1908.343628 1903.304688,1908.283691 1849.487671,1908.147583 
	C1835.565186,1908.112305 1821.644287,1907.396729 1806.987183,1906.657349 
z"/>
<path fill="#BD0146" opacity="1.000000" stroke="none" 
	d="
M1806.553589,1331.897095 
	C1806.480957,1283.369385 1806.408325,1234.841675 1806.360596,1185.427124 
	C1807.709717,1184.421509 1809.034058,1184.198486 1810.358276,1184.198975 
	C1889.505981,1184.227173 1968.653687,1184.273438 2048.706787,1184.429688 
	C2049.614502,1235.125732 2049.616699,1285.709839 2048.847656,1337.073730 
	C2046.299805,1336.968994 2044.464722,1336.184326 2042.754761,1335.185303 
	C1984.958008,1301.425171 1923.563110,1293.035889 1859.188354,1310.889893 
	C1841.093262,1315.908569 1824.068970,1324.788330 1806.553589,1331.897095 
z"/>
<path fill="#F3B600" opacity="1.000000" stroke="none" 
	d="
M2176.006592,1091.907471 
	C2165.743408,1091.907471 2156.477783,1091.907471 2146.525879,1091.907471 
	C2146.525879,1073.309204 2146.525879,1055.515381 2146.525879,1037.039795 
	C2149.069580,1036.799805 2151.620850,1036.361328 2154.173828,1036.350586 
	C2169.494873,1036.285522 2184.816895,1036.253662 2200.137695,1036.367065 
	C2203.774414,1036.393921 2207.458008,1036.744263 2211.032227,1037.414795 
	C2225.436523,1040.116821 2231.790039,1047.587524 2232.212158,1061.984619 
	C2232.753174,1080.437744 2223.461182,1090.813843 2204.977051,1091.747437 
	C2195.673828,1092.217285 2186.329590,1091.879761 2176.006592,1091.907471 
z"/>
<path fill="#F4B600" opacity="1.000000" stroke="none" 
	d="
M2145.827148,989.790894 
	C2145.826416,978.941956 2145.826416,969.068542 2145.826416,958.163269 
	C2153.482422,958.163269 2160.044434,958.162598 2166.606445,958.163452 
	C2177.240234,958.164734 2187.874268,958.112610 2198.507324,958.201355 
	C2201.814941,958.229065 2205.182861,958.310425 2208.414062,958.933167 
	C2221.017334,961.362000 2226.565674,968.209229 2226.014648,980.251587 
	C2225.514893,991.170349 2218.882812,997.601196 2206.288818,998.289185 
	C2195.684082,998.868591 2185.032959,998.635132 2174.402100,998.696655 
	C2165.445801,998.748535 2156.489014,998.707275 2146.729736,998.707275 
	C2146.395020,995.759644 2146.111328,993.263000 2145.827148,989.790894 
z"/>
<path fill="#2B211C" opacity="1.000000" stroke="none" 
	d="
M1674.525269,669.387695 
	C1674.429199,669.011353 1674.529297,668.528748 1674.351562,668.381470 
	C1674.017700,668.104858 1673.523315,668.022156 1673.095703,667.858765 
	C1672.822754,669.720215 1672.312622,671.581421 1672.311035,673.443054 
	C1672.260986,732.567383 1672.241943,791.691650 1672.333374,850.815857 
	C1672.336304,852.737732 1673.543945,854.657715 1674.327393,855.657593 
	C1674.728760,851.791870 1675.220459,848.847351 1675.222900,845.902405 
	C1675.268555,790.048462 1675.266357,734.194519 1675.228027,678.340576 
	C1675.226074,675.371216 1674.816162,672.402100 1674.525269,669.387695 
z"/>
<path fill="#271F1A" opacity="1.000000" stroke="none" 
	d="
M1806.082520,1332.419434 
	C1824.068970,1324.788330 1841.093262,1315.908569 1859.188354,1310.889893 
	C1923.563110,1293.035889 1984.958008,1301.425171 2042.754761,1335.185303 
	C2044.464722,1336.184326 2046.299805,1336.968994 2048.736572,1338.015747 
	C2059.969238,1346.689575 2070.665039,1355.053467 2081.085693,1363.747314 
	C2097.018799,1377.040039 2109.741455,1393.165771 2121.625488,1411.539307 
	C2122.683838,1413.860107 2123.398926,1414.925049 2124.114014,1415.990112 
	C2124.114014,1415.990112 2124.002686,1416.004761 2124.203125,1416.525269 
	C2124.950439,1417.638306 2125.497803,1418.230835 2126.044922,1418.823364 
	C2126.044922,1418.823364 2126.082764,1418.889771 2126.209473,1419.667358 
	C2126.924072,1421.273926 2127.511719,1422.102905 2128.099609,1422.931885 
	C2128.099609,1422.931885 2128.057861,1423.011108 2128.246094,1423.667725 
	C2129.162354,1424.919067 2129.890381,1425.513794 2130.618164,1426.108643 
	C2132.312988,1429.334473 2134.007812,1432.560425 2135.814941,1437.218994 
	C2136.643066,1440.110840 2137.358887,1441.569946 2138.074707,1443.029053 
	C2138.074707,1443.029053 2137.978027,1442.999268 2137.987305,1443.689575 
	C2138.696045,1445.591064 2139.395996,1446.802124 2140.095947,1448.013184 
	C2140.095947,1448.013184 2139.989990,1447.981079 2139.973633,1448.462646 
	C2139.989502,1449.292969 2140.021729,1449.641602 2140.123047,1450.657471 
	C2141.490723,1453.553345 2142.789062,1455.782104 2144.087402,1458.010864 
	C2144.087402,1458.010864 2143.990234,1458.004883 2143.932617,1458.654541 
	C2144.613281,1460.874756 2145.351562,1462.445312 2146.089844,1464.015869 
	C2146.089844,1464.015869 2145.987061,1463.997559 2145.938965,1464.473145 
	C2145.910645,1465.297241 2145.930420,1465.645752 2145.959229,1466.728516 
	C2147.263428,1471.010132 2148.558594,1474.557129 2149.836426,1478.857910 
	C2150.515625,1482.423828 2151.211670,1485.236084 2151.880371,1488.823242 
	C2152.562744,1493.073486 2153.272461,1496.548950 2153.939453,1500.850098 
	C2154.612305,1506.447876 2155.327637,1511.219971 2155.969727,1516.925537 
	C2155.984131,1528.563843 2156.071533,1539.268799 2156.011963,1550.818359 
	C2154.068359,1563.963501 2152.271973,1576.264038 2150.475586,1588.564575 
	C2153.194092,1594.568481 2148.593994,1599.399414 2146.896973,1605.910156 
	C2139.180664,1621.751221 2132.413818,1636.524658 2125.741699,1651.340698 
	C2125.411621,1652.073608 2125.905273,1653.177612 2126.015381,1654.108765 
	C2126.015381,1654.108765 2125.983887,1653.992188 2125.333984,1653.864746 
	C2123.145996,1656.539307 2121.608154,1659.341309 2120.070312,1662.143311 
	C2120.070312,1662.143311 2120.020752,1662.018799 2119.440430,1662.189941 
	C2117.931152,1664.287109 2117.002441,1666.213379 2116.073730,1668.139648 
	C2116.073730,1668.139648 2116.021973,1668.016357 2115.428711,1668.179443 
	C2113.918701,1670.271484 2113.001709,1672.200439 2112.084717,1674.129395 
	C2112.084717,1674.129395 2112.018066,1674.013428 2111.376465,1674.172363 
	C2110.500000,1675.588135 2110.265381,1676.844971 2110.031006,1678.101685 
	C2110.031006,1678.101685 2109.994141,1677.999756 2109.375977,1677.726807 
	C2107.196533,1679.686035 2105.635010,1681.918091 2104.073242,1684.150146 
	C2104.073242,1684.150146 2104.025879,1684.022583 2103.385254,1684.185425 
	C2102.500244,1685.598877 2102.255859,1686.849365 2102.011475,1688.099854 
	C2102.011475,1688.099854 2101.984863,1687.991089 2101.364258,1687.701172 
	C2091.183105,1696.992188 2081.622314,1706.573120 2072.061279,1716.154053 
	C2072.061279,1716.153931 2072.020508,1716.020142 2071.398926,1716.012695 
	C2067.871094,1718.719360 2064.965088,1721.433472 2062.058838,1724.147705 
	C2062.058838,1724.147583 2062.015381,1724.014893 2061.362305,1723.965332 
	C2057.701172,1726.528809 2052.345215,1726.647339 2052.010986,1732.101685 
	C2052.010986,1732.101685 2051.997803,1731.994019 2051.411621,1731.630615 
	C2048.528076,1732.823608 2046.230469,1734.380127 2043.933105,1735.936768 
	C2043.933105,1735.936890 2044.002563,1735.999512 2043.289673,1735.914307 
	C2039.696289,1737.860474 2036.815674,1739.891724 2033.935059,1741.923096 
	C2033.935181,1741.923218 2034.000000,1742.000000 2033.341187,1741.847900 
	C2031.766479,1742.440308 2030.850708,1743.184937 2029.934937,1743.929688 
	C2029.934937,1743.929688 2030.000000,1744.000000 2029.344971,1743.847168 
	C2027.771606,1744.439453 2026.853271,1745.184570 2025.935059,1745.929688 
	C2025.935059,1745.929688 2026.000244,1746.000000 2025.344971,1745.847168 
	C2023.771484,1746.439331 2022.853271,1747.184448 2021.935059,1747.929688 
	C2021.935059,1747.929688 2022.000366,1748.000000 2021.228516,1747.842529 
	C2014.277222,1750.445923 2008.097534,1753.206787 2001.917969,1755.967651 
	C2001.917969,1755.967651 2002.007446,1756.015259 2001.270752,1755.862305 
	C1996.995483,1757.127930 1993.457031,1758.546387 1989.918579,1759.964844 
	C1989.918579,1759.964966 1990.007324,1760.016357 1989.341553,1759.834717 
	C1986.622925,1760.342651 1984.569946,1761.032471 1982.516968,1761.722168 
	C1982.003784,1761.778687 1981.490601,1761.835083 1979.465332,1762.001709 
	C1962.231323,1764.153320 1946.556519,1766.798462 1930.771484,1768.034668 
	C1919.255859,1768.936523 1907.594849,1767.982056 1895.221558,1767.669067 
	C1885.694824,1766.342896 1876.945068,1765.202759 1868.195435,1764.062622 
	C1853.126953,1758.416016 1838.015747,1752.879395 1823.013062,1747.063110 
	C1817.797607,1745.041260 1812.850098,1742.328247 1807.083008,1739.776367 
	C1786.137817,1726.622192 1767.224121,1712.032104 1751.030273,1694.073364 
	C1718.438110,1657.928833 1698.330200,1615.955078 1691.790771,1567.651855 
	C1685.214478,1519.075073 1692.560791,1472.658936 1714.936035,1429.009766 
	C1733.187500,1393.405151 1758.718750,1363.953857 1792.311890,1341.807251 
	C1796.760010,1338.874878 1801.178955,1335.897949 1806.082520,1332.419434 
M2015.795898,1567.852417 
	C2014.927856,1565.336060 2014.188843,1562.766235 2013.172241,1560.311523 
	C1999.785400,1527.987671 1965.506348,1516.619385 1935.489014,1534.466064 
	C1931.346191,1536.929321 1927.903931,1539.479492 1927.795654,1545.076660 
	C1927.740112,1547.947632 1926.424805,1550.899414 1925.244995,1553.626831 
	C1916.425659,1574.016724 1900.815308,1587.375366 1880.666016,1595.681519 
	C1869.994263,1600.080811 1858.732910,1601.803589 1847.418945,1598.656982 
	C1836.347900,1595.577637 1825.497070,1591.706299 1813.677612,1587.901978 
	C1794.004150,1618.887451 1763.498657,1631.977905 1725.720703,1632.275146 
	C1726.832520,1635.031982 1727.401123,1636.870361 1728.276733,1638.548584 
	C1740.742798,1662.438843 1757.226685,1683.142212 1777.438477,1700.966919 
	C1781.438721,1704.494629 1785.480225,1706.415161 1790.867065,1705.845703 
	C1810.379639,1703.783081 1830.028076,1702.671509 1849.407227,1699.753296 
	C1890.008545,1693.639038 1928.315674,1681.113281 1962.052734,1656.665771 
	C1978.271118,1644.913208 1994.543335,1633.316650 2006.242920,1616.645874 
	C2016.270264,1602.357910 2020.852295,1586.872559 2015.795898,1567.852417 
M2108.118408,1594.867432 
	C2114.045410,1603.049683 2119.972656,1611.231934 2126.593018,1620.371216 
	C2129.349121,1611.916992 2132.533691,1603.921387 2134.556641,1595.641846 
	C2144.610596,1554.490112 2146.619629,1554.236084 2123.125488,1515.730713 
	C2091.088623,1463.223267 2043.776367,1429.539185 1985.206787,1411.472656 
	C1972.408203,1407.524658 1959.303345,1405.136475 1945.835815,1406.176636 
	C1924.504395,1407.824341 1908.748657,1417.724609 1899.745239,1437.630249 
	C1892.919556,1452.720703 1891.053101,1468.436035 1894.523315,1484.469604 
	C1898.310547,1501.968384 1907.576050,1516.137939 1922.338013,1526.380127 
	C1926.170532,1524.256348 1929.298584,1522.338989 1932.580566,1520.736816 
	C1945.370239,1514.493774 1958.659180,1510.597656 1973.093384,1512.938721 
	C2001.540039,1517.552612 2023.828247,1539.491333 2029.989990,1568.843506 
	C2030.726685,1572.352051 2031.489868,1575.855103 2032.259888,1579.451050 
	C2060.083496,1572.292114 2085.232178,1574.815186 2108.118408,1594.867432 
M1874.499878,1584.356567 
	C1895.314331,1575.846802 1910.273560,1562.020874 1916.334106,1539.268066 
	C1894.432861,1522.380249 1881.363770,1501.102173 1880.197388,1473.679688 
	C1879.049072,1446.679565 1888.847412,1423.774780 1908.145386,1404.782715 
	C1895.789551,1392.741455 1888.564209,1378.955444 1887.310425,1362.171631 
	C1886.072021,1345.591309 1891.350586,1330.923218 1900.937378,1317.317261 
	C1899.026367,1316.856079 1898.363892,1316.503784 1897.751221,1316.575928 
	C1865.183350,1320.407593 1835.062622,1331.241333 1806.857666,1347.870361 
	C1802.055542,1350.701660 1799.731201,1354.302856 1798.546631,1359.416992 
	C1794.717773,1375.949585 1790.474731,1392.388428 1786.802124,1408.954468 
	C1779.905518,1440.063599 1776.880371,1471.436035 1781.959351,1503.164551 
	C1785.385498,1524.567749 1792.311768,1544.756348 1807.104492,1560.995850 
	C1824.647827,1580.255005 1845.795410,1591.270020 1874.499878,1584.356567 
M2040.998535,1591.052979 
	C2035.644165,1592.705322 2030.309448,1593.709229 2028.512817,1600.707764 
	C2024.590820,1615.984863 2015.538086,1628.465820 2004.358521,1639.153442 
	C1978.834961,1663.553467 1949.931274,1682.984863 1916.840454,1695.690552 
	C1893.138306,1704.791260 1868.482544,1710.404053 1843.396484,1714.039307 
	C1830.077393,1715.969482 1816.679565,1717.357544 1800.696899,1719.310547 
	C1806.533203,1722.908569 1810.272827,1725.423950 1814.198975,1727.602905 
	C1865.114502,1755.858887 1919.118774,1763.314209 1975.463989,1749.334473 
	C2034.860229,1734.597656 2080.126221,1699.869385 2112.193848,1647.898926 
	C2113.979736,1645.004395 2115.486084,1641.058838 2115.101074,1637.844604 
	C2112.346924,1614.850342 2095.777344,1596.326172 2073.351562,1590.754761 
	C2063.180176,1588.228027 2052.887451,1588.432373 2040.998535,1591.052979 
M2041.932251,1421.016724 
	C2083.884277,1443.703979 2115.939209,1476.669189 2141.539551,1519.083008 
	C2141.539551,1514.436157 2141.801270,1512.187012 2141.501709,1510.015503 
	C2131.989502,1441.045166 2098.649170,1386.914673 2039.988403,1349.117554 
	C2007.117310,1327.937378 1970.725464,1317.050903 1931.580811,1315.867554 
	C1928.132935,1315.763184 1923.860840,1316.191650 1921.281616,1318.122559 
	C1887.842529,1343.156494 1898.658447,1385.375000 1922.123291,1397.814331 
	C1943.567139,1389.316772 1965.478882,1391.966431 1987.331177,1398.016235 
	C2006.029419,1403.192871 2023.573120,1411.183594 2041.932251,1421.016724 
M1787.917603,1558.999146 
	C1780.166992,1546.760986 1775.166016,1533.416382 1771.852051,1519.371582 
	C1765.023804,1490.432251 1764.413086,1461.189697 1769.048950,1432.000000 
	C1772.019653,1413.294922 1776.818481,1394.881226 1780.756836,1376.328125 
	C1781.396729,1373.313232 1781.823364,1370.253296 1782.552979,1366.030762 
	C1705.326416,1426.488525 1684.191040,1537.679077 1718.841919,1617.558960 
	C1748.092651,1624.257568 1790.008667,1608.490723 1802.200928,1577.602783 
	C1797.650635,1571.774292 1793.152344,1566.012207 1787.917603,1558.999146 
z"/>
<path fill="#B28614" opacity="1.000000" stroke="none" 
	d="
M2126.620605,1653.787598 
	C2125.905273,1653.177612 2125.411621,1652.073608 2125.741699,1651.340698 
	C2132.413818,1636.524658 2139.180664,1621.751221 2146.454834,1606.631348 
	C2143.522217,1623.326782 2135.716553,1638.540161 2126.620605,1653.787598 
z"/>
<path fill="#B28614" opacity="1.000000" stroke="none" 
	d="
M2072.731445,1716.489990 
	C2081.622314,1706.573120 2091.183105,1696.992188 2101.420410,1687.703857 
	C2094.349121,1699.415405 2084.293213,1708.536743 2072.731445,1716.489990 
z"/>
<path fill="#95791D" opacity="1.000000" stroke="none" 
	d="
M2151.192383,1588.390381 
	C2152.271973,1576.264038 2154.068359,1563.963501 2156.398926,1550.829346 
	C2156.933105,1549.995728 2157.707520,1550.013550 2157.707520,1550.013550 
	C2157.642334,1563.031128 2156.630615,1575.905151 2151.192383,1588.390381 
z"/>
<path fill="#A2821A" opacity="1.000000" stroke="none" 
	d="
M2157.876221,1549.088379 
	C2157.707520,1550.013550 2156.933105,1549.995728 2156.546143,1549.984619 
	C2156.071533,1539.268799 2155.984131,1528.563843 2156.355469,1516.917480 
	C2156.814453,1515.976074 2157.583740,1515.911743 2157.583740,1515.911743 
	C2157.737305,1526.662231 2157.891113,1537.412598 2157.876221,1549.088379 
z"/>
<path fill="#B28614" opacity="1.000000" stroke="none" 
	d="
M2062.754395,1724.417236 
	C2064.965088,1721.433472 2067.871094,1718.719360 2071.461914,1716.042725 
	C2071.793213,1721.520996 2066.577393,1722.048462 2062.754395,1724.417236 
z"/>
<path fill="#B28614" opacity="1.000000" stroke="none" 
	d="
M2052.710205,1732.074219 
	C2052.345215,1726.647339 2057.701172,1726.528809 2061.422363,1724.000854 
	C2059.227051,1726.739624 2056.318115,1729.393188 2052.710205,1732.074219 
z"/>
<path fill="#8F7016" opacity="1.000000" stroke="none" 
	d="
M2157.682129,1515.129883 
	C2157.583740,1515.911743 2156.814453,1515.976074 2156.428711,1515.984131 
	C2155.327637,1511.219971 2154.612305,1506.447876 2154.352783,1500.854004 
	C2154.808594,1500.032227 2155.635254,1500.034058 2155.635254,1500.034058 
	C2156.350342,1504.805420 2157.065430,1509.576660 2157.682129,1515.129883 
z"/>
<path fill="#796824" opacity="1.000000" stroke="none" 
	d="
M2149.853516,1478.104248 
	C2148.558594,1474.557129 2147.263428,1471.010132 2146.396484,1466.728516 
	C2146.824219,1465.994141 2147.697510,1465.994141 2147.697510,1465.994141 
	C2148.520996,1468.766357 2149.344238,1471.538696 2150.071777,1475.623901 
	C2149.935303,1477.325928 2149.894531,1477.715088 2149.853516,1478.104248 
z"/>
<path fill="#786929" opacity="1.000000" stroke="none" 
	d="
M2149.836426,1478.857910 
	C2149.894531,1477.715088 2149.935303,1477.325928 2150.031738,1476.351318 
	C2151.189209,1479.371582 2152.290527,1482.977417 2153.042969,1487.306763 
	C2152.694092,1488.030273 2151.907715,1488.048340 2151.907715,1488.048340 
	C2151.211670,1485.236084 2150.515625,1482.423828 2149.836426,1478.857910 
z"/>
<path fill="#7E6B25" opacity="1.000000" stroke="none" 
	d="
M2151.880371,1488.823242 
	C2151.907715,1488.048340 2152.694092,1488.030273 2153.086914,1488.019531 
	C2154.244873,1491.509521 2155.009521,1495.010132 2155.704590,1499.272461 
	C2155.635254,1500.034058 2154.808594,1500.032227 2154.395508,1500.028320 
	C2153.272461,1496.548950 2152.562744,1493.073486 2151.880371,1488.823242 
z"/>
<path fill="#B28614" opacity="1.000000" stroke="none" 
	d="
M2104.733398,1684.418213 
	C2105.635010,1681.918091 2107.196533,1679.686035 2109.429688,1677.734619 
	C2108.531982,1680.238892 2106.962646,1682.462524 2104.733398,1684.418213 
z"/>
<path fill="#B28614" opacity="1.000000" stroke="none" 
	d="
M2120.760742,1662.315674 
	C2121.608154,1659.341309 2123.145996,1656.539307 2125.394287,1653.860962 
	C2124.553467,1656.818970 2123.002441,1659.653564 2120.760742,1662.315674 
z"/>
<path fill="#6F6227" opacity="1.000000" stroke="none" 
	d="
M2144.163086,1457.304443 
	C2142.789062,1455.782104 2141.490723,1453.553345 2140.582520,1450.663574 
	C2140.972900,1450.002686 2141.893066,1450.033203 2141.893066,1450.033203 
	C2142.674805,1452.221436 2143.456787,1454.409790 2144.163086,1457.304443 
z"/>
<path fill="#B28614" opacity="1.000000" stroke="none" 
	d="
M2044.604004,1736.192017 
	C2046.230469,1734.380127 2048.528076,1732.823608 2051.461914,1731.650757 
	C2051.458252,1732.909912 2050.818115,1733.785400 2049.822266,1735.083862 
	C2048.069580,1735.820312 2046.672241,1736.133789 2044.604004,1736.192017 
z"/>
<path fill="#B28614" opacity="1.000000" stroke="none" 
	d="
M2116.812744,1668.259155 
	C2117.002441,1666.213379 2117.931152,1664.287109 2119.507324,1662.193481 
	C2119.287109,1664.143555 2118.419434,1666.261108 2116.812744,1668.259155 
z"/>
<path fill="#B28614" opacity="1.000000" stroke="none" 
	d="
M2112.818604,1674.189941 
	C2113.001709,1672.200439 2113.918701,1670.271484 2115.495605,1668.185791 
	C2115.287598,1670.103027 2114.420166,1672.176758 2112.818604,1674.189941 
z"/>
<path fill="#6F6227" opacity="1.000000" stroke="none" 
	d="
M2146.196289,1463.324219 
	C2145.351562,1462.445312 2144.613281,1460.874756 2143.957764,1458.613037 
	C2144.794434,1459.491943 2145.548584,1461.062134 2146.196289,1463.324219 
z"/>
<path fill="#696232" opacity="1.000000" stroke="none" 
	d="
M2140.178467,1447.274658 
	C2139.395996,1446.802124 2138.696045,1445.591064 2138.016602,1443.648315 
	C2138.778076,1444.123169 2139.519531,1445.329590 2140.178467,1447.274658 
z"/>
<path fill="#56593A" opacity="1.000000" stroke="none" 
	d="
M2124.099365,1415.336182 
	C2123.398926,1414.925049 2122.683838,1413.860107 2121.927734,1412.109375 
	C2122.619629,1412.509888 2123.352051,1413.596191 2124.099365,1415.336182 
z"/>
<path fill="#696232" opacity="1.000000" stroke="none" 
	d="
M2138.087402,1442.200928 
	C2137.358887,1441.569946 2136.643066,1440.110840 2135.941650,1437.815918 
	C2136.670654,1438.444458 2137.385254,1439.908691 2138.087402,1442.200928 
z"/>
<path fill="#B28614" opacity="1.000000" stroke="none" 
	d="
M2102.654541,1687.821045 
	C2102.255859,1686.849365 2102.500244,1685.598877 2103.452637,1684.194092 
	C2103.873047,1685.207275 2103.585449,1686.374634 2102.654541,1687.821045 
z"/>
<path fill="#B28614" opacity="1.000000" stroke="none" 
	d="
M2110.658691,1677.838867 
	C2110.265381,1676.844971 2110.500000,1675.588135 2111.442383,1674.182617 
	C2111.862305,1675.214478 2111.574463,1676.395264 2110.658691,1677.838867 
z"/>
<path fill="#56593A" opacity="1.000000" stroke="none" 
	d="
M2125.942383,1418.186768 
	C2125.497803,1418.230835 2124.950439,1417.638306 2124.222656,1416.472656 
	C2124.641113,1416.449707 2125.240723,1416.999878 2125.942383,1418.186768 
z"/>
<path fill="#56593A" opacity="1.000000" stroke="none" 
	d="
M2130.307373,1425.483521 
	C2129.890381,1425.513794 2129.162354,1424.919067 2128.239990,1423.624268 
	C2128.696045,1423.568848 2129.346191,1424.213623 2130.307373,1425.483521 
z"/>
<path fill="#696232" opacity="1.000000" stroke="none" 
	d="
M2141.809570,1449.511963 
	C2141.893066,1450.033203 2140.972900,1450.002686 2140.513428,1449.996460 
	C2140.021729,1449.641602 2139.989502,1449.292969 2140.010986,1448.421875 
	C2140.618652,1448.263306 2141.172363,1448.627075 2141.809570,1449.511963 
z"/>
<path fill="#56593A" opacity="1.000000" stroke="none" 
	d="
M2128.041016,1422.138916 
	C2127.511719,1422.102905 2126.924072,1421.273926 2126.181152,1419.693115 
	C2126.678223,1419.742798 2127.330078,1420.544312 2128.041016,1422.138916 
z"/>
<path fill="#6F6227" opacity="1.000000" stroke="none" 
	d="
M2147.658203,1465.490723 
	C2147.697510,1465.994141 2146.824219,1465.994141 2146.387207,1465.994141 
	C2145.930420,1465.645752 2145.910645,1465.297241 2145.970215,1464.431152 
	C2146.572754,1464.271729 2147.095947,1464.629517 2147.658203,1465.490723 
z"/>
<path fill="#AF6A12" opacity="1.000000" stroke="none" 
	d="
M1895.998657,1767.854980 
	C1907.594849,1767.982056 1919.255859,1768.936523 1930.771484,1768.034668 
	C1946.556519,1766.798462 1962.231323,1764.153320 1978.701172,1762.127441 
	C1978.904419,1766.296509 1975.406982,1765.930664 1972.635864,1766.453491 
	C1950.160767,1770.692627 1927.598145,1773.460449 1904.696289,1770.281128 
	C1902.412354,1769.963867 1900.077393,1770.014648 1896.891357,1769.322510 
	C1896.016479,1768.750244 1895.998657,1767.854980 1895.998657,1767.854980 
z"/>
<path fill="#B05B1A" opacity="1.000000" stroke="none" 
	d="
M1895.221558,1767.669067 
	C1895.998657,1767.854980 1896.016479,1768.750244 1896.025635,1769.196411 
	C1887.128662,1768.093506 1878.222656,1766.544434 1868.756104,1764.529053 
	C1876.945068,1765.202759 1885.694824,1766.342896 1895.221558,1767.669067 
z"/>
<path fill="#B28614" opacity="1.000000" stroke="none" 
	d="
M2002.697754,1756.175537 
	C2008.097534,1753.206787 2014.277222,1750.445923 2021.209717,1747.797974 
	C2017.351929,1754.119019 2010.280396,1754.958008 2002.697754,1756.175537 
z"/>
<path fill="#B28614" opacity="1.000000" stroke="none" 
	d="
M2034.653442,1742.123657 
	C2036.815674,1739.891724 2039.696289,1737.860474 2043.268433,1735.872192 
	C2043.196655,1740.864868 2038.779663,1740.918335 2034.653442,1742.123657 
z"/>
<path fill="#B28614" opacity="1.000000" stroke="none" 
	d="
M1990.682617,1760.174072 
	C1993.457031,1758.546387 1996.995483,1757.127930 2001.276367,1755.811890 
	C1999.734131,1760.336304 1995.399536,1759.908325 1990.682617,1760.174072 
z"/>
<path fill="#B28614" opacity="1.000000" stroke="none" 
	d="
M1983.216064,1761.873535 
	C1984.569946,1761.032471 1986.622925,1760.342651 1989.350098,1759.784180 
	C1987.988037,1760.618408 1985.951660,1761.321655 1983.216064,1761.873535 
z"/>
<path fill="#B28614" opacity="1.000000" stroke="none" 
	d="
M2022.597412,1748.135498 
	C2022.853271,1747.184448 2023.771484,1746.439331 2025.327271,1745.802246 
	C2025.063110,1746.720581 2024.161377,1747.531006 2022.597412,1748.135498 
z"/>
<path fill="#B28614" opacity="1.000000" stroke="none" 
	d="
M2026.597290,1746.135498 
	C2026.853271,1745.184570 2027.771606,1744.439453 2029.327148,1743.802246 
	C2029.062988,1744.720459 2028.161255,1745.530884 2026.597290,1746.135498 
z"/>
<path fill="#B28614" opacity="1.000000" stroke="none" 
	d="
M2030.596802,1744.135498 
	C2030.850708,1743.184937 2031.766479,1742.440308 2033.318848,1741.802490 
	C2033.056519,1742.719971 2032.157593,1743.530640 2030.596802,1744.135498 
z"/>
<path fill="#F5B800" opacity="1.000000" stroke="none" 
	d="
M2015.970947,1568.658936 
	C2020.852295,1586.872559 2016.270264,1602.357910 2006.242920,1616.645874 
	C1994.543335,1633.316650 1978.271118,1644.913208 1962.052734,1656.665771 
	C1928.315674,1681.113281 1890.008545,1693.639038 1849.407227,1699.753296 
	C1830.028076,1702.671509 1810.379639,1703.783081 1790.867065,1705.845703 
	C1785.480225,1706.415161 1781.438721,1704.494629 1777.438477,1700.966919 
	C1757.226685,1683.142212 1740.742798,1662.438843 1728.276733,1638.548584 
	C1727.401123,1636.870361 1726.832520,1635.031982 1725.720703,1632.275146 
	C1763.498657,1631.977905 1794.004150,1618.887451 1813.677612,1587.901978 
	C1825.497070,1591.706299 1836.347900,1595.577637 1847.418945,1598.656982 
	C1858.732910,1601.803589 1869.994263,1600.080811 1880.666016,1595.681519 
	C1900.815308,1587.375366 1916.425659,1574.016724 1925.244995,1553.626831 
	C1926.424805,1550.899414 1927.740112,1547.947632 1927.795654,1545.076660 
	C1927.903931,1539.479492 1931.346191,1536.929321 1935.489014,1534.466064 
	C1965.506348,1516.619385 1999.785400,1527.987671 2013.172241,1560.311523 
	C2014.188843,1562.766235 2014.927856,1565.336060 2015.970947,1568.658936 
z"/>
<path fill="#F5B800" opacity="1.000000" stroke="none" 
	d="
M2107.605957,1594.375977 
	C2085.232178,1574.815186 2060.083496,1572.292114 2032.259888,1579.451050 
	C2031.489868,1575.855103 2030.726685,1572.352051 2029.989990,1568.843506 
	C2023.828247,1539.491333 2001.540039,1517.552612 1973.093384,1512.938721 
	C1958.659180,1510.597656 1945.370239,1514.493774 1932.580566,1520.736816 
	C1929.298584,1522.338989 1926.170532,1524.256348 1922.338013,1526.380127 
	C1907.576050,1516.137939 1898.310547,1501.968384 1894.523315,1484.469604 
	C1891.053101,1468.436035 1892.919556,1452.720703 1899.745239,1437.630249 
	C1908.748657,1417.724609 1924.504395,1407.824341 1945.835815,1406.176636 
	C1959.303345,1405.136475 1972.408203,1407.524658 1985.206787,1411.472656 
	C2043.776367,1429.539185 2091.088623,1463.223267 2123.125488,1515.730713 
	C2146.619629,1554.236084 2144.610596,1554.490112 2134.556641,1595.641846 
	C2132.533691,1603.921387 2129.349121,1611.916992 2126.593018,1620.371216 
	C2119.972656,1611.231934 2114.045410,1603.049683 2107.605957,1594.375977 
z"/>
<path fill="#F5B800" opacity="1.000000" stroke="none" 
	d="
M1873.719116,1584.652710 
	C1845.795410,1591.270020 1824.647827,1580.255005 1807.104492,1560.995850 
	C1792.311768,1544.756348 1785.385498,1524.567749 1781.959351,1503.164551 
	C1776.880371,1471.436035 1779.905518,1440.063599 1786.802124,1408.954468 
	C1790.474731,1392.388428 1794.717773,1375.949585 1798.546631,1359.416992 
	C1799.731201,1354.302856 1802.055542,1350.701660 1806.857666,1347.870361 
	C1835.062622,1331.241333 1865.183350,1320.407593 1897.751221,1316.575928 
	C1898.363892,1316.503784 1899.026367,1316.856079 1900.937378,1317.317261 
	C1891.350586,1330.923218 1886.072021,1345.591309 1887.310425,1362.171631 
	C1888.564209,1378.955444 1895.789551,1392.741455 1908.145386,1404.782715 
	C1888.847412,1423.774780 1879.049072,1446.679565 1880.197388,1473.679688 
	C1881.363770,1501.102173 1894.432861,1522.380249 1916.334106,1539.268066 
	C1910.273560,1562.020874 1895.314331,1575.846802 1873.719116,1584.652710 
z"/>
<path fill="#F5B700" opacity="1.000000" stroke="none" 
	d="
M2041.815430,1590.799561 
	C2052.887451,1588.432373 2063.180176,1588.228027 2073.351562,1590.754761 
	C2095.777344,1596.326172 2112.346924,1614.850342 2115.101074,1637.844604 
	C2115.486084,1641.058838 2113.979736,1645.004395 2112.193848,1647.898926 
	C2080.126221,1699.869385 2034.860229,1734.597656 1975.463989,1749.334473 
	C1919.118774,1763.314209 1865.114502,1755.858887 1814.198975,1727.602905 
	C1810.272827,1725.423950 1806.533203,1722.908569 1800.696899,1719.310547 
	C1816.679565,1717.357544 1830.077393,1715.969482 1843.396484,1714.039307 
	C1868.482544,1710.404053 1893.138306,1704.791260 1916.840454,1695.690552 
	C1949.931274,1682.984863 1978.834961,1663.553467 2004.358521,1639.153442 
	C2015.538086,1628.465820 2024.590820,1615.984863 2028.512817,1600.707764 
	C2030.309448,1593.709229 2035.644165,1592.705322 2041.815430,1590.799561 
z"/>
<path fill="#F4B700" opacity="1.000000" stroke="none" 
	d="
M2041.289551,1420.646606 
	C2023.573120,1411.183594 2006.029419,1403.192871 1987.331177,1398.016235 
	C1965.478882,1391.966431 1943.567139,1389.316772 1922.123291,1397.814331 
	C1898.658447,1385.375000 1887.842529,1343.156494 1921.281616,1318.122559 
	C1923.860840,1316.191650 1928.132935,1315.763184 1931.580811,1315.867554 
	C1970.725464,1317.050903 2007.117310,1327.937378 2039.988403,1349.117554 
	C2098.649170,1386.914673 2131.989502,1441.045166 2141.501709,1510.015503 
	C2141.801270,1512.187012 2141.539551,1514.436157 2141.539551,1519.083008 
	C2115.939209,1476.669189 2083.884277,1443.703979 2041.289551,1420.646606 
z"/>
<path fill="#F4B700" opacity="1.000000" stroke="none" 
	d="
M1788.285889,1559.624756 
	C1793.152344,1566.012207 1797.650635,1571.774292 1802.200928,1577.602783 
	C1790.008667,1608.490723 1748.092651,1624.257568 1718.841919,1617.558960 
	C1684.191040,1537.679077 1705.326416,1426.488525 1782.552979,1366.030762 
	C1781.823364,1370.253296 1781.396729,1373.313232 1780.756836,1376.328125 
	C1776.818481,1394.881226 1772.019653,1413.294922 1769.048950,1432.000000 
	C1764.413086,1461.189697 1765.023804,1490.432251 1771.852051,1519.371582 
	C1775.166016,1533.416382 1780.166992,1546.760986 1788.285889,1559.624756 
z"/>
</svg>