<svg xmlns="http://www.w3.org/2000/svg" width="300" height="300" viewBox="0 0 300 300" version="1.1"><path d="M 129.516 1.079 C 106.312 4.279, 82.057 13.958, 62.553 27.801 C 52.195 35.152, 35.101 52.268, 27.688 62.709 C 15.893 79.324, 6.692 100.459, 2.312 121 C -0.282 133.169, -0.274 166.907, 2.326 178.976 C 5.173 192.190, 9.771 205.606, 15.102 216.259 C 21.259 228.561, 23.763 232.556, 31.554 242.500 C 55.905 273.585, 91.250 293.965, 129.681 299.081 C 142.331 300.765, 171.046 299.703, 182 297.145 C 200.716 292.774, 219.484 284.522, 235.496 273.623 C 245.818 266.597, 263.285 249.724, 270.758 239.560 C 284.853 220.390, 295.262 195.484, 298.233 173.822 C 298.887 169.048, 299.778 165.363, 300.211 165.631 C 300.645 165.899, 300.993 158.554, 300.985 149.309 C 300.976 139.923, 300.601 133.082, 300.134 133.817 C 299.609 134.646, 299.057 132.817, 298.646 128.884 C 297.341 116.399, 290.571 94.924, 283.647 81.306 C 275.903 66.075, 260.925 47.236, 247.797 36.213 C 227.481 19.155, 206.888 8.980, 180.500 2.959 C 170.010 0.566, 140.997 -0.504, 129.516 1.079 M 131.500 6.689 C 69.561 14.717, 19.764 61.649, 7.313 123.730 C 4.645 137.033, 4.906 165.106, 7.824 178.688 C 25.395 260.477, 105.508 310.623, 185.609 289.971 C 239.753 276.013, 279.438 233.723, 291.624 177 C 294.402 164.070, 294.179 135.073, 291.196 121.312 C 285.209 93.695, 272.916 70.471, 253.557 50.206 C 241.322 37.398, 230.120 29.229, 213.500 20.995 C 191.306 10, 173.526 5.900, 149.119 6.150 C 141.079 6.232, 133.150 6.475, 131.500 6.689 M 148 24.500 C 148 32.197, 148.192 33.110, 149.750 32.810 C 151.242 32.522, 151.500 31.298, 151.500 24.500 C 151.500 17.702, 151.242 16.478, 149.750 16.190 C 148.192 15.890, 148 16.803, 148 24.500 M 129 17.685 C 119.895 21.140, 121.830 34, 131.455 34 C 136.309 34, 141.349 28.982, 137.750 27.733 C 137.063 27.494, 135.459 28.106, 134.186 29.093 C 130.707 31.792, 127.048 29.893, 127.015 25.372 C 126.991 22.005, 129.609 20.414, 133.042 21.710 C 135.236 22.538, 136.174 22.495, 136.974 21.531 C 138.836 19.287, 132.647 16.302, 129 17.685 M 165.308 17.988 C 159.736 20.287, 158.487 29.127, 163.262 32.471 C 168.723 36.296, 177 32.458, 177 26.101 C 177 20.417, 170.445 15.868, 165.308 17.988 M 165.567 22.926 C 163.442 25.274, 163.813 27.805, 166.546 29.617 C 168.290 30.773, 168.919 30.745, 170.796 29.430 C 173.380 27.620, 173.642 24.785, 171.429 22.571 C 169.346 20.489, 167.682 20.589, 165.567 22.926 M 184.738 29.465 C 183.277 33.609, 182.251 37, 182.459 37 C 182.667 37, 183.519 37.262, 184.353 37.582 C 185.462 38.008, 186.200 37.066, 187.094 34.082 C 187.766 31.837, 188.613 30, 188.976 30 C 189.338 30, 190.401 32.430, 191.337 35.401 C 193.232 41.412, 195.592 43.257, 196.877 39.731 C 201.334 27.495, 201.467 26.907, 199.976 25.985 C 198.148 24.855, 197.557 25.515, 195.977 30.451 L 194.712 34.402 192.606 28.464 C 189.620 20.047, 187.984 20.255, 184.738 29.465 M 102.468 32.545 C 102.076 37.244, 101.971 41.305, 102.235 41.568 C 103.249 42.582, 106 40.699, 106 38.991 C 106 36.363, 111.275 34.704, 113.274 36.703 C 114.311 37.739, 115.303 37.930, 116.418 37.306 C 117.799 36.533, 117.192 35.448, 112.440 30.197 C 104.588 21.520, 103.362 21.809, 102.468 32.545 M 106 31.417 C 106 32.288, 106.713 33, 107.583 33 C 109.349 33, 109.042 30.847, 107.188 30.229 C 106.534 30.011, 106 30.546, 106 31.417 M 85.106 32.914 C 83.954 33.643, 84.098 34.423, 85.937 37.398 C 88.499 41.543, 88.412 41.584, 81.910 39.274 C 74.599 36.678, 73.886 38.233, 78.651 46.380 C 82.746 53.383, 82.787 53.421, 84.824 52.130 C 85.883 51.458, 85.734 50.613, 84.077 47.895 C 82.939 46.028, 82.006 44.214, 82.004 43.865 C 82.002 43.516, 84.494 44.149, 87.543 45.272 C 95.424 48.175, 96.173 46.867, 91.349 38.620 C 87.233 31.582, 87.223 31.573, 85.106 32.914 M 209.648 39.181 C 204.046 43.272, 203.075 44.385, 204.066 45.579 C 204.975 46.675, 205.596 46.750, 206.632 45.891 C 208.841 44.057, 213.816 46.610, 214.193 49.771 C 214.560 52.852, 216.613 53.845, 217.365 51.305 C 217.659 50.312, 218.199 46.305, 218.564 42.401 C 219.429 33.165, 218.395 32.792, 209.648 39.181 M 213.097 41.383 C 212.212 42.450, 212.298 42.900, 213.474 43.352 C 214.523 43.754, 215 43.322, 215 41.969 C 215 39.637, 214.638 39.526, 213.097 41.383 M 133.611 44.038 C 120.677 46.070, 104.193 52.087, 94 58.496 C 86.427 63.258, 90.675 63.240, 99.347 58.473 C 114.580 50.100, 131.281 46, 150.153 46 C 168.262 46, 181.695 49.260, 198.054 57.626 C 206.768 62.082, 212.732 63.661, 208.500 60.391 C 203.682 56.669, 185.622 48.784, 176.477 46.410 C 165.313 43.512, 144.342 42.351, 133.611 44.038 M 227.716 51.609 C 225.122 54.693, 223 57.506, 223 57.859 C 223 58.211, 224.614 59.788, 226.588 61.362 C 229.195 63.443, 230.475 63.925, 231.274 63.126 C 232.073 62.327, 231.771 61.385, 230.166 59.677 L 227.959 57.328 232.144 52.574 C 235.479 48.785, 236.041 47.639, 234.914 46.926 C 232.788 45.580, 232.780 45.586, 227.716 51.609 M 59.026 51.750 L 56.021 54.500 61.429 60.500 C 65.665 65.199, 67.105 66.240, 68.068 65.301 C 69.039 64.355, 68.936 63.551, 67.579 61.480 L 65.860 58.856 70.237 59.513 C 73.572 60.013, 74.922 59.798, 75.907 58.612 C 77.031 57.257, 76.668 56.971, 73.099 56.400 C 69.760 55.866, 69 55.342, 69 53.572 C 69 48.465, 63.679 47.493, 59.026 51.750 M 61.543 53.931 C 61.226 54.443, 61.425 55.144, 61.984 55.490 C 63.177 56.227, 65 55.291, 65 53.941 C 65 52.724, 62.293 52.716, 61.543 53.931 M 44.327 67.637 L 41.553 71.275 45.527 74.747 C 47.712 76.657, 50.566 78.932, 51.869 79.803 C 54.144 81.323, 54.349 81.250, 57.092 77.943 C 60.290 74.086, 60.671 72.472, 58.575 71.667 C 57.742 71.347, 56.459 72.176, 55.482 73.667 C 54.263 75.529, 53.516 75.916, 52.707 75.107 C 51.898 74.298, 51.923 73.677, 52.800 72.800 C 54.421 71.179, 54.319 69, 52.622 69 C 51.865 69, 50.689 69.670, 50.009 70.489 C 48.019 72.887, 46.717 71.081, 48.487 68.379 C 50.036 66.016, 49.808 64, 47.992 64 C 47.502 64, 45.853 65.637, 44.327 67.637 M 78.782 113.750 C 78.937 139.462, 79.492 163.459, 80.014 167.077 C 84.335 196.986, 103.263 228.233, 127.572 245.587 C 136.251 251.782, 147.153 258, 149.338 258 C 152.370 258, 163.851 251.496, 173.162 244.503 C 196.098 227.279, 211.371 203.088, 218.620 172.500 C 220.011 166.628, 220.349 157.562, 220.714 116.250 L 221.149 67 149.825 67 L 78.500 67 78.782 113.750 M 248.245 72.250 C 244.843 74.588, 242.047 76.805, 242.030 77.179 C 242.014 77.552, 243.516 79.465, 245.368 81.429 C 247.857 84.068, 249.566 85, 251.914 85 C 255.889 85, 260 81.143, 260 77.413 C 260 74.772, 256.499 68, 255.134 68 C 254.747 68, 251.647 69.912, 248.245 72.250 M 81.031 112.250 C 81.048 135.488, 81.498 157.875, 82.032 162 C 85.651 189.981, 97.519 213.860, 117.488 233.340 C 124.807 240.480, 138.439 250.156, 145.786 253.428 C 149.908 255.263, 150.214 255.269, 153.786 253.578 C 167.902 246.898, 188.109 229.150, 197.216 215.436 C 207.237 200.343, 214.591 181.366, 216.928 164.566 C 217.556 160.048, 218 138.875, 218 113.428 L 218 70 149.500 70 L 81 70 81.031 112.250 M 250.208 75.787 C 247.587 77.961, 247.169 78.769, 248.158 79.758 C 251.218 82.818, 256.456 80.172, 255.827 75.883 C 255.359 72.699, 253.961 72.675, 250.208 75.787 M 69.417 79.164 C 55.354 94.420, 45.166 117.993, 43.087 140.082 C 38.898 184.608, 62.069 226.018, 102.500 246.259 C 110.289 250.159, 123.123 254.433, 130 255.418 C 134.480 256.060, 134.488 256.056, 131.748 254.498 C 130.234 253.638, 125.092 251.803, 120.321 250.420 C 74.796 237.228, 42.923 192.842, 45.336 146 C 46.659 120.344, 53.978 102.249, 72.095 79.854 C 75.869 75.188, 73.616 74.608, 69.417 79.164 M 226.015 76.259 C 226.007 77.227, 228.819 81.727, 232.264 86.259 C 246.824 105.414, 254 126.459, 254 150 C 254 196.735, 223.409 237.551, 178.739 250.418 C 163.496 254.809, 161.084 257.808, 175.822 254.045 C 206.736 246.152, 232.436 225.110, 246.105 196.500 C 259.740 167.962, 260.391 137.139, 247.983 107.554 C 243.057 95.809, 226.054 71.587, 226.015 76.259 M 32.688 85.009 C 30.178 89.478, 30.057 90.085, 31.562 90.662 C 32.606 91.063, 33.597 90.685, 34.165 89.669 C 34.982 88.210, 35.693 88.374, 40.639 91.165 C 45.061 93.661, 46.366 94.025, 47.032 92.948 C 48.189 91.076, 47.644 90.476, 42.008 87.408 C 37.945 85.197, 37.240 84.420, 38.003 82.994 C 38.513 82.042, 38.645 80.979, 38.298 80.631 C 36.814 79.147, 35.330 80.305, 32.688 85.009 M 97 94 C 97 102.933, 97.019 103, 99.500 103 C 101.833 103, 102 102.667, 102 98 C 102 95.250, 102.316 93, 102.702 93 C 103.089 93, 104.889 94.438, 106.702 96.196 L 110 99.392 113.500 96 L 117 92.608 117 97.804 C 117 102.911, 117.052 103, 120 103 L 123 103 123 94 L 123 85 119.696 85 C 117.232 85, 115.529 85.891, 112.994 88.506 L 109.596 92.012 106.006 88.506 C 103.691 86.245, 101.454 85, 99.708 85 L 97 85 97 94 M 127.500 94 L 127.500 103 130.250 103 L 133 103 133 94 L 133 85 130.250 85 L 127.500 85 127.500 94 M 141.223 93.515 C 138.900 98.198, 137 102.248, 137 102.515 C 137 103.322, 142.999 103.058, 143.015 102.250 C 143.024 101.838, 143.450 100.837, 143.963 100.026 C 144.747 98.786, 145.313 98.945, 147.532 101.026 L 150.170 103.500 152.206 101 L 154.242 98.500 155.743 100.750 C 156.682 102.157, 158.255 103, 159.944 103 L 162.644 103 158.342 94 L 154.039 85 149.742 85 L 145.446 85 141.223 93.515 M 166 94 L 166 103 169 103 C 171.933 103, 172 102.889, 172 98 C 172 95.250, 172.254 93, 172.565 93 C 172.875 93, 174.265 94.350, 175.653 96 C 177.042 97.650, 178.773 99, 179.500 99 C 180.227 99, 181.958 97.650, 183.347 96 C 184.735 94.350, 186.125 93, 186.435 93 C 186.746 93, 187 95.250, 187 98 C 187 102.667, 187.167 103, 189.500 103 C 191.981 103, 192 102.933, 192 94 L 192 85 189.292 85 C 187.546 85, 185.309 86.245, 182.994 88.506 L 179.404 92.012 176.006 88.506 C 173.471 85.891, 171.768 85, 169.304 85 L 166 85 166 94 M 197 94 L 197 103 200 103 L 203 103 203 94 L 203 85 200 85 L 197 85 197 94 M 260.335 90.799 L 253.169 94.500 255.210 98.500 C 257.770 103.518, 257.611 103.363, 259.492 102.642 C 260.917 102.095, 260.922 101.749, 259.539 99.075 C 258.456 96.982, 258.332 95.913, 259.115 95.429 C 260.127 94.804, 261.465 96.067, 262.294 98.430 C 262.473 98.941, 263.400 99.061, 264.353 98.695 C 265.782 98.146, 265.887 97.657, 264.950 95.907 C 264.188 94.482, 264.146 93.454, 264.822 92.778 C 265.499 92.101, 266.353 92.782, 267.423 94.851 C 268.468 96.873, 269.528 97.734, 270.508 97.359 C 271.329 97.044, 272 96.366, 272 95.853 C 272 94.902, 268.147 86.959, 267.730 87.049 C 267.603 87.077, 264.276 88.764, 260.335 90.799 M 148.256 91.337 C 147.349 93.328, 147.402 94.089, 148.512 95.010 C 151.395 97.403, 153.124 93.920, 150.700 90.604 C 149.486 88.945, 149.324 88.993, 148.256 91.337 M 25.368 100.483 C 24.567 102.571, 25.648 103.764, 29.011 104.503 C 33.208 105.424, 32.734 106.535, 27.519 107.995 C 22.757 109.328, 20.068 111.544, 21.592 112.881 C 22.700 113.852, 34.255 118, 35.853 118 C 36.484 118, 37 117.171, 37 116.158 C 37 114.858, 35.751 113.942, 32.755 113.045 L 28.511 111.773 34.005 109.740 C 38.911 107.924, 40.938 106.546, 40.985 104.994 C 40.993 104.716, 37.605 103.268, 33.457 101.776 C 27.267 99.549, 25.815 99.318, 25.368 100.483 M 148.462 117.250 C 147.383 122.278, 147.009 122.401, 143.406 118.909 L 140.038 115.644 141.019 119.065 C 142.462 124.097, 142.344 124.287, 138.250 123.523 L 134.500 122.823 136.921 125.408 C 139.677 128.351, 139.702 128.285, 135 130.321 L 131.500 131.837 135.629 131.918 C 139.252 131.990, 139.911 132.372, 141.016 135.040 C 142.686 139.071, 145.637 141, 150.134 141 C 153.025 141, 154.382 140.335, 156.411 137.923 C 160.216 133.402, 159.710 131.392, 155.559 134.532 C 152.698 136.696, 145.774 136.396, 142.696 133.975 C 140.409 132.176, 140.238 131.617, 141.164 128.960 C 143.430 122.460, 151.060 120.906, 156.077 125.923 C 157.685 127.531, 159 129.556, 159 130.423 C 159 131.624, 160.012 131.981, 163.250 131.918 L 167.500 131.837 164 130.321 C 159.298 128.285, 159.323 128.351, 162.079 125.408 L 164.500 122.823 160.641 123.543 C 157.035 124.216, 156.822 124.124, 157.391 122.132 C 159.385 115.152, 159.455 115.286, 155.687 118.876 L 152.145 122.252 151.034 118.126 C 150.423 115.857, 149.751 114, 149.541 114 C 149.331 114, 148.845 115.463, 148.462 117.250 M 115 117.064 C 114.175 117.584, 109.900 118.634, 105.500 119.396 L 97.500 120.782 109.128 120.891 C 117.986 120.974, 121.043 121.347, 121.964 122.456 C 123.805 124.675, 122.539 125.671, 116.930 126.415 C 110.098 127.321, 107 130.358, 107 136.149 C 107 140.326, 107.301 140.691, 127.250 160.738 L 147.500 181.088 147.820 177.377 C 148.128 173.809, 147.612 173.137, 134.334 159.833 C 126.740 152.225, 121.189 146, 121.999 146 C 122.809 146, 128.990 151.506, 135.736 158.235 L 148 170.470 148 166.963 C 148 163.892, 146.943 162.405, 139.500 155 C 134.825 150.349, 131 146.211, 131 145.803 C 131 144.010, 135.004 146.767, 141.250 152.861 C 146.975 158.446, 148 159.104, 148 157.191 C 148 151.555, 141.728 143.340, 135.685 141.061 C 134.137 140.478, 128.881 140, 124.006 140 C 117.282 140, 114.764 139.621, 113.571 138.429 C 112.707 137.564, 112 136.471, 112 136 C 112 133.969, 115.414 132, 118.937 132 C 124.494 132, 128 128.900, 128 123.986 C 128 121.859, 127.462 119.786, 126.805 119.380 C 126.049 118.912, 126.874 118.185, 129.055 117.397 C 132.314 116.219, 132.069 116.151, 124.500 116.135 C 120.100 116.125, 115.825 116.543, 115 117.064 M 169.767 117.123 C 172.577 117.934, 172.892 118.333, 172.017 119.967 C 170.457 122.883, 170.802 126.534, 172.880 129.100 C 174.268 130.814, 176.138 131.563, 180.027 131.961 C 185.948 132.567, 188.301 134.708, 186.391 137.750 C 185.498 139.171, 183.337 139.600, 174.896 140.029 C 161.198 140.726, 156.219 143.445, 152.548 152.232 C 149.475 159.585, 150.741 159.704, 157.775 152.723 C 161.501 149.025, 165.430 146, 166.504 146 C 167.928 146, 166.089 148.380, 159.729 154.770 C 152.124 162.411, 151 163.986, 151 167.005 L 151 170.470 163.250 158.369 C 174.252 147.501, 179 143.703, 179 145.769 C 179 146.157, 172.666 152.820, 164.925 160.576 C 152.052 173.472, 150.877 174.948, 151.175 177.860 C 151.493 180.980, 151.916 180.628, 171.977 160.536 C 191.806 140.677, 192.455 139.900, 192.455 136.014 C 192.455 130.337, 189.064 127.150, 182.154 126.332 C 177.540 125.785, 176.936 125.453, 177.199 123.605 C 177.481 121.631, 178.249 121.469, 189.500 121 L 201.500 120.500 193.234 119.128 C 188.687 118.374, 184.723 117.361, 184.425 116.878 C 184.126 116.395, 179.971 116.041, 175.191 116.090 C 168.010 116.165, 167.068 116.344, 169.767 117.123 M 272.500 117.986 C 270.850 118.430, 268.262 119.073, 266.750 119.415 C 264.922 119.829, 264 120.681, 264 121.956 C 264 123.590, 264.519 123.790, 267.500 123.306 C 270.583 122.806, 271 122.992, 271 124.869 C 271 126.370, 271.624 127, 273.108 127 C 274.844 127, 275.109 126.569, 274.605 124.561 C 273.691 120.921, 275.883 120.367, 277.124 123.925 C 277.713 125.616, 278.886 127, 279.729 127 C 280.944 127, 281.133 126.222, 280.642 123.250 C 280.301 121.188, 280.017 118.938, 280.011 118.250 C 279.999 116.863, 277.065 116.760, 272.500 117.986 M 18.183 126.710 C 18.510 128.408, 20.727 129.132, 29.734 130.483 C 33.521 131.051, 34 130.903, 34 129.164 C 34 127.541, 32.913 127.016, 27.668 126.103 C 19.007 124.594, 17.790 124.672, 18.183 126.710 M 0.409 150.500 C 0.408 159.850, 0.558 163.810, 0.743 159.299 C 0.928 154.789, 0.929 147.139, 0.745 142.299 C 0.562 137.460, 0.410 141.150, 0.409 150.500 M 273.500 135.733 C 269.312 136.339, 267 138.746, 267 142.500 C 267 147.531, 269.611 149.156, 277.125 148.801 C 282.239 148.559, 283.545 148.158, 283.813 146.750 C 284.103 145.229, 283.299 145, 277.680 145 C 273.196 145, 271.056 144.589, 270.700 143.659 C 269.713 141.089, 271.845 139.677, 277.408 139.216 C 282.046 138.831, 283 138.432, 283 136.876 C 283 134.934, 280.832 134.673, 273.500 135.733 M 284 141.878 C 284 143.138, 286.935 145.398, 287.648 144.686 C 288.672 143.662, 287.143 141, 285.531 141 C 284.689 141, 284 141.395, 284 141.878 M 24.498 152.004 C 24.157 152.556, 22.873 152.755, 21.645 152.447 C 18.314 151.611, 15.792 154.903, 16.184 159.575 L 16.500 163.347 23.965 163.099 C 28.071 162.963, 31.785 162.633, 32.218 162.366 C 33.207 161.754, 32.065 153.928, 30.741 152.250 C 29.561 150.754, 25.372 150.589, 24.498 152.004 M 26 157 C 26 158.111, 26.667 159, 27.500 159 C 28.333 159, 29 158.111, 29 157 C 29 155.889, 28.333 155, 27.500 155 C 26.667 155, 26 155.889, 26 157 M 20 157.417 C 20 158.287, 20.712 159, 21.583 159 C 22.454 159, 22.989 158.466, 22.771 157.813 C 22.153 155.958, 20 155.651, 20 157.417 M 279.756 158.824 C 279.342 160.407, 278.457 160.588, 273.042 160.197 C 267.356 159.785, 266.836 159.912, 267.161 161.623 C 267.443 163.110, 268.659 163.604, 273.009 164 C 277.806 164.437, 278.541 164.792, 278.827 166.808 C 279.044 168.338, 279.719 169.010, 280.827 168.799 C 283.101 168.366, 283.909 157, 281.667 157 C 280.878 157, 280.019 157.821, 279.756 158.824 M 123 166.675 C 123 172.263, 123.224 172.813, 127 176.500 L 131 180.406 131 201.703 L 131 223 127 223 C 124.467 223, 123 223.458, 122.999 224.250 C 122.999 225.108, 124.646 225.460, 128.249 225.371 L 133.500 225.243 134 204.590 L 134.500 183.937 140.959 190.456 L 147.417 196.975 143.992 200.508 L 140.568 204.041 145.061 208.535 L 149.555 213.029 153.980 208.521 L 158.404 204.012 154.994 200.493 L 151.583 196.975 158.013 190.487 C 161.549 186.919, 164.793 184, 165.221 184 C 165.650 184, 166 193.474, 166 205.052 L 166 226.105 171.171 225.802 C 177.675 225.422, 178.869 223.247, 172.813 222.811 L 168.500 222.500 168.230 201.729 L 167.959 180.958 172.480 176.125 C 176.648 171.669, 177 170.885, 177 166.063 C 177 159.497, 174.654 159.509, 174.183 166.078 C 173.984 168.859, 173.085 171.335, 171.759 172.750 C 168.920 175.781, 168 175.583, 168 171.941 C 168 170.156, 167.583 169.139, 167 169.500 C 166.450 169.840, 166 172.014, 166 174.331 C 166 178.279, 165.480 179.062, 157.728 186.773 L 149.456 195.003 141.728 187.229 C 134.608 180.067, 134 179.133, 134 175.350 C 134 172.921, 133.388 170.737, 132.500 170 C 131.211 168.931, 131 169.290, 131 172.552 L 131 176.349 128.500 174 C 126.602 172.217, 126 170.639, 126 167.448 C 126 164.932, 125.398 162.745, 124.500 162 C 123.195 160.917, 123 161.526, 123 166.675 M 23 173.396 C 17.094 174.971, 16.734 177.661, 22.500 177.135 C 31.143 176.346, 31.486 176.402, 31.804 178.633 C 32.036 180.259, 31.346 181.032, 28.905 181.883 C 27.143 182.497, 24.981 183.007, 24.101 183.015 C 21.541 183.040, 19.883 184.531, 20.533 186.224 C 21.063 187.606, 21.793 187.635, 26.794 186.473 C 35.600 184.426, 38.448 179.357, 33.545 174.455 C 30.842 171.751, 29.628 171.629, 23 173.396 M 264.109 177.117 C 261.847 183.606, 263.449 187.438, 268.197 186.892 C 269.464 186.746, 271.496 186.961, 272.712 187.369 C 276.035 188.483, 278.620 186.537, 279.755 182.066 C 280.881 177.630, 281.389 178.086, 273 176 C 270.525 175.385, 267.762 174.668, 266.859 174.408 C 265.711 174.077, 264.886 174.889, 264.109 177.117 M 267 181.083 C 267 183.520, 269.337 183.176, 269.823 180.667 C 270.015 179.680, 269.505 179, 268.573 179 C 267.646 179, 267 179.855, 267 181.083 M 273.500 181 C 273.101 181.646, 273.224 182.624, 273.774 183.174 C 274.441 183.841, 275.016 183.783, 275.500 183 C 275.899 182.354, 275.776 181.376, 275.226 180.826 C 274.559 180.159, 273.984 180.217, 273.500 181 M 36.300 189.646 C 35.448 189.992, 35.376 190.858, 36.050 192.632 C 37.485 196.405, 37.362 196.594, 32.250 198.496 C 26.350 200.691, 25.239 201.639, 26.770 203.170 C 27.663 204.063, 29.603 203.687, 34.970 201.581 C 38.836 200.064, 42 198.541, 42 198.195 C 42 196.786, 38.684 189.006, 38.114 189.079 C 37.776 189.122, 36.960 189.377, 36.300 189.646 M 259.942 195.472 C 252.491 199.524, 255.283 211, 263.720 211 C 272.522 211, 275.168 199.345, 267.316 195.163 C 264.538 193.684, 263.119 193.743, 259.942 195.472 M 260.496 200.004 C 258.981 201.678, 258.875 202.429, 259.849 204.567 C 260.796 206.647, 261.601 207.067, 264.149 206.813 C 268.343 206.394, 269.821 202.821, 266.976 199.976 C 264.471 197.471, 262.782 197.479, 260.496 200.004 M 147.075 202.085 L 144.650 204.104 147.125 206.579 L 149.600 209.055 151.965 206.538 C 154.260 204.094, 154.276 203.963, 152.509 202.010 C 150.290 199.558, 150.107 199.561, 147.075 202.085 M 42 208.772 C 42 209.836, 43.106 211.183, 44.500 211.818 C 47.696 213.274, 47.853 217.289, 44.796 219.430 C 42.919 220.745, 42.290 220.773, 40.546 219.617 C 39.421 218.872, 38.271 216.965, 37.990 215.381 C 37.278 211.359, 34.586 211.608, 34.188 215.733 C 33.492 222.945, 43.211 226.880, 48.545 221.545 C 51.666 218.425, 51.750 213.937, 48.750 210.637 C 45.654 207.231, 42 206.222, 42 208.772 M 246.397 216.976 C 244.256 220.211, 243.941 221.337, 244.907 222.290 C 245.870 223.240, 246.565 222.912, 248.136 220.770 L 250.138 218.040 255.238 221.474 C 260.260 224.857, 262 225.142, 262 222.583 C 262 221.556, 253.043 214.654, 249.807 213.186 C 249.426 213.013, 247.891 214.718, 246.397 216.976 M 73 243 C 72.956 246.553, 71.977 247.683, 67.998 248.768 L 64.500 249.723 68.174 250.458 C 71.345 251.093, 71.973 251.694, 72.770 254.847 L 73.694 258.500 74.647 255.050 C 75.409 252.294, 76.294 251.409, 79.050 250.647 L 82.500 249.694 78.750 248.747 C 75.881 248.024, 74.996 247.296, 74.985 245.651 C 74.976 244.468, 74.533 242.825, 74 242 C 73.231 240.810, 73.024 241.017, 73 243 M 224.681 244.157 C 224.043 247.324, 223.445 247.941, 220.222 248.756 L 216.500 249.696 220.156 250.442 C 223.364 251.096, 223.901 251.636, 224.532 254.844 L 225.250 258.500 226.442 255.067 C 227.327 252.516, 228.516 251.336, 231.067 250.476 L 234.500 249.319 230.923 248.647 C 227.832 248.066, 227.215 247.467, 226.382 244.237 L 225.417 240.500 224.681 244.157 M 107.042 267.858 C 104.607 276.037, 104.571 276.621, 106.468 277.349 C 108.202 278.015, 108.539 277.554, 109.462 273.250 C 110.132 270.124, 111.984 268.674, 112.015 271.250 C 112.024 271.938, 112.417 273.110, 112.890 273.855 C 113.595 274.968, 114.241 274.888, 116.497 273.410 L 119.245 271.610 118.513 275.055 C 117.390 280.339, 117.392 280.357, 119.163 280.747 C 120.419 281.024, 121.197 279.817, 122.349 275.806 C 125.388 265.224, 125.407 265, 123.243 265 C 122.158 265, 120.088 265.929, 118.645 267.065 C 115.595 269.464, 114.487 269.075, 113.531 265.269 C 112.886 262.699, 111.438 261.051, 109.792 261.015 C 109.403 261.007, 108.166 264.086, 107.042 267.858 M 186.385 261.765 C 185.771 262.169, 184.954 263.512, 184.567 264.750 C 183.748 267.375, 182.733 267.588, 181 265.500 C 179.692 263.923, 176.829 263.504, 175.621 264.712 C 175.230 265.104, 176.544 266.796, 178.542 268.474 L 182.174 271.524 180.462 275.803 C 179.520 278.157, 178.967 280.300, 179.232 280.565 C 180.338 281.671, 182.931 279.637, 183.878 276.920 C 185.013 273.663, 186.150 273.271, 188 275.500 C 189.327 277.099, 194 277.589, 194 276.129 C 194 275.650, 192.428 274.187, 190.507 272.879 C 186.589 270.210, 186.390 269.397, 188.449 264.468 C 189.905 260.984, 189.123 259.961, 186.385 261.765 M 164.818 268.500 C 163.441 271.522, 162.845 271.591, 160.500 269 C 158.829 267.154, 155 266.192, 155 267.618 C 155 267.958, 156.356 269.780, 158.013 271.668 L 161.026 275.099 158.418 279.550 C 155.838 283.953, 155.833 284, 157.951 284 C 159.274 284, 160.741 282.870, 161.789 281.045 L 163.485 278.090 166.183 280.675 C 167.890 282.311, 169.489 283.026, 170.538 282.624 C 171.957 282.079, 171.749 281.478, 169.098 278.459 C 165.438 274.290, 165.453 274.409, 168.004 270.226 C 170.475 266.173, 170.473 266, 167.979 266 C 166.793 266, 165.486 267.033, 164.818 268.500 M 131.642 273.147 C 130.677 282.383, 130.762 283, 133 283 C 134.667 283, 135 282.333, 135 279 C 135 274.414, 136.067 273.888, 138.009 277.517 L 139.356 280.033 141.931 277.566 L 144.507 275.099 144.153 279.549 C 143.837 283.517, 144.027 284, 145.899 284 C 147.522 284, 148.002 283.375, 148.009 281.250 C 148.013 279.738, 148.301 276.137, 148.648 273.250 C 149.228 268.419, 149.115 268, 147.228 268 C 146.100 268, 144.016 269.381, 142.596 271.069 L 140.014 274.137 137.908 270.569 C 134.566 264.904, 132.411 265.791, 131.642 273.147" stroke="none" fill="#ebc2d1" fill-rule="evenodd"/><path d="M 131.500 6.689 C 69.561 14.717, 19.764 61.649, 7.313 123.730 C 4.645 137.033, 4.906 165.106, 7.824 178.688 C 25.395 260.477, 105.508 310.623, 185.609 289.971 C 239.753 276.013, 279.438 233.723, 291.624 177 C 294.402 164.070, 294.179 135.073, 291.196 121.312 C 285.209 93.695, 272.916 70.471, 253.557 50.206 C 241.322 37.398, 230.120 29.229, 213.500 20.995 C 191.306 10, 173.526 5.900, 149.119 6.150 C 141.079 6.232, 133.150 6.475, 131.500 6.689 M 148 24.500 C 148 32.197, 148.192 33.110, 149.750 32.810 C 151.242 32.522, 151.500 31.298, 151.500 24.500 C 151.500 17.702, 151.242 16.478, 149.750 16.190 C 148.192 15.890, 148 16.803, 148 24.500 M 129 17.685 C 119.895 21.140, 121.830 34, 131.455 34 C 136.309 34, 141.349 28.982, 137.750 27.733 C 137.063 27.494, 135.459 28.106, 134.186 29.093 C 130.707 31.792, 127.048 29.893, 127.015 25.372 C 126.991 22.005, 129.609 20.414, 133.042 21.710 C 135.236 22.538, 136.174 22.495, 136.974 21.531 C 138.836 19.287, 132.647 16.302, 129 17.685 M 165.308 17.988 C 159.736 20.287, 158.487 29.127, 163.262 32.471 C 168.723 36.296, 177 32.458, 177 26.101 C 177 20.417, 170.445 15.868, 165.308 17.988 M 165.567 22.926 C 163.442 25.274, 163.813 27.805, 166.546 29.617 C 168.290 30.773, 168.919 30.745, 170.796 29.430 C 173.380 27.620, 173.642 24.785, 171.429 22.571 C 169.346 20.489, 167.682 20.589, 165.567 22.926 M 184.738 29.465 C 183.277 33.609, 182.251 37, 182.459 37 C 182.667 37, 183.519 37.262, 184.353 37.582 C 185.462 38.008, 186.200 37.066, 187.094 34.082 C 187.766 31.837, 188.613 30, 188.976 30 C 189.338 30, 190.401 32.430, 191.337 35.401 C 193.232 41.412, 195.592 43.257, 196.877 39.731 C 201.334 27.495, 201.467 26.907, 199.976 25.985 C 198.148 24.855, 197.557 25.515, 195.977 30.451 L 194.712 34.402 192.606 28.464 C 189.620 20.047, 187.984 20.255, 184.738 29.465 M 102.468 32.545 C 102.076 37.244, 101.971 41.305, 102.235 41.568 C 103.249 42.582, 106 40.699, 106 38.991 C 106 36.363, 111.275 34.704, 113.274 36.703 C 114.311 37.739, 115.303 37.930, 116.418 37.306 C 117.799 36.533, 117.192 35.448, 112.440 30.197 C 104.588 21.520, 103.362 21.809, 102.468 32.545 M 106 31.417 C 106 32.288, 106.713 33, 107.583 33 C 109.349 33, 109.042 30.847, 107.188 30.229 C 106.534 30.011, 106 30.546, 106 31.417 M 85.106 32.914 C 83.954 33.643, 84.098 34.423, 85.937 37.398 C 88.499 41.543, 88.412 41.584, 81.910 39.274 C 74.599 36.678, 73.886 38.233, 78.651 46.380 C 82.746 53.383, 82.787 53.421, 84.824 52.130 C 85.883 51.458, 85.734 50.613, 84.077 47.895 C 82.939 46.028, 82.006 44.214, 82.004 43.865 C 82.002 43.516, 84.494 44.149, 87.543 45.272 C 95.424 48.175, 96.173 46.867, 91.349 38.620 C 87.233 31.582, 87.223 31.573, 85.106 32.914 M 209.648 39.181 C 204.046 43.272, 203.075 44.385, 204.066 45.579 C 204.975 46.675, 205.596 46.750, 206.632 45.891 C 208.841 44.057, 213.816 46.610, 214.193 49.771 C 214.560 52.852, 216.613 53.845, 217.365 51.305 C 217.659 50.312, 218.199 46.305, 218.564 42.401 C 219.429 33.165, 218.395 32.792, 209.648 39.181 M 213.097 41.383 C 212.212 42.450, 212.298 42.900, 213.474 43.352 C 214.523 43.754, 215 43.322, 215 41.969 C 215 39.637, 214.638 39.526, 213.097 41.383 M 133.611 44.038 C 120.677 46.070, 104.193 52.087, 94 58.496 C 86.427 63.258, 90.675 63.240, 99.347 58.473 C 114.580 50.100, 131.281 46, 150.153 46 C 168.262 46, 181.695 49.260, 198.054 57.626 C 206.768 62.082, 212.732 63.661, 208.500 60.391 C 203.682 56.669, 185.622 48.784, 176.477 46.410 C 165.313 43.512, 144.342 42.351, 133.611 44.038 M 227.716 51.609 C 225.122 54.693, 223 57.506, 223 57.859 C 223 58.211, 224.614 59.788, 226.588 61.362 C 229.195 63.443, 230.475 63.925, 231.274 63.126 C 232.073 62.327, 231.771 61.385, 230.166 59.677 L 227.959 57.328 232.144 52.574 C 235.479 48.785, 236.041 47.639, 234.914 46.926 C 232.788 45.580, 232.780 45.586, 227.716 51.609 M 59.026 51.750 L 56.021 54.500 61.429 60.500 C 65.665 65.199, 67.105 66.240, 68.068 65.301 C 69.039 64.355, 68.936 63.551, 67.579 61.480 L 65.860 58.856 70.237 59.513 C 73.572 60.013, 74.922 59.798, 75.907 58.612 C 77.031 57.257, 76.668 56.971, 73.099 56.400 C 69.760 55.866, 69 55.342, 69 53.572 C 69 48.465, 63.679 47.493, 59.026 51.750 M 61.543 53.931 C 61.226 54.443, 61.425 55.144, 61.984 55.490 C 63.177 56.227, 65 55.291, 65 53.941 C 65 52.724, 62.293 52.716, 61.543 53.931 M 44.327 67.637 L 41.553 71.275 45.527 74.747 C 47.712 76.657, 50.566 78.932, 51.869 79.803 C 54.144 81.323, 54.349 81.250, 57.092 77.943 C 60.290 74.086, 60.671 72.472, 58.575 71.667 C 57.742 71.347, 56.459 72.176, 55.482 73.667 C 54.263 75.529, 53.516 75.916, 52.707 75.107 C 51.898 74.298, 51.923 73.677, 52.800 72.800 C 54.421 71.179, 54.319 69, 52.622 69 C 51.865 69, 50.689 69.670, 50.009 70.489 C 48.019 72.887, 46.717 71.081, 48.487 68.379 C 50.036 66.016, 49.808 64, 47.992 64 C 47.502 64, 45.853 65.637, 44.327 67.637 M 78.782 113.750 C 78.937 139.462, 79.492 163.459, 80.014 167.077 C 84.335 196.986, 103.263 228.233, 127.572 245.587 C 136.251 251.782, 147.153 258, 149.338 258 C 152.370 258, 163.851 251.496, 173.162 244.503 C 196.098 227.279, 211.371 203.088, 218.620 172.500 C 220.011 166.628, 220.349 157.562, 220.714 116.250 L 221.149 67 149.825 67 L 78.500 67 78.782 113.750 M 248.245 72.250 C 244.843 74.588, 242.047 76.805, 242.030 77.179 C 242.014 77.552, 243.516 79.465, 245.368 81.429 C 247.857 84.068, 249.566 85, 251.914 85 C 255.889 85, 260 81.143, 260 77.413 C 260 74.772, 256.499 68, 255.134 68 C 254.747 68, 251.647 69.912, 248.245 72.250 M 81.031 112.250 C 81.048 135.488, 81.498 157.875, 82.032 162 C 85.651 189.981, 97.519 213.860, 117.488 233.340 C 124.807 240.480, 138.439 250.156, 145.786 253.428 C 149.908 255.263, 150.214 255.269, 153.786 253.578 C 167.902 246.898, 188.109 229.150, 197.216 215.436 C 207.237 200.343, 214.591 181.366, 216.928 164.566 C 217.556 160.048, 218 138.875, 218 113.428 L 218 70 149.500 70 L 81 70 81.031 112.250 M 250.208 75.787 C 247.587 77.961, 247.169 78.769, 248.158 79.758 C 251.218 82.818, 256.456 80.172, 255.827 75.883 C 255.359 72.699, 253.961 72.675, 250.208 75.787 M 69.417 79.164 C 55.354 94.420, 45.166 117.993, 43.087 140.082 C 38.898 184.608, 62.069 226.018, 102.500 246.259 C 110.289 250.159, 123.123 254.433, 130 255.418 C 134.480 256.060, 134.488 256.056, 131.748 254.498 C 130.234 253.638, 125.092 251.803, 120.321 250.420 C 74.796 237.228, 42.923 192.842, 45.336 146 C 46.659 120.344, 53.978 102.249, 72.095 79.854 C 75.869 75.188, 73.616 74.608, 69.417 79.164 M 226.015 76.259 C 226.007 77.227, 228.819 81.727, 232.264 86.259 C 246.824 105.414, 254 126.459, 254 150 C 254 196.735, 223.409 237.551, 178.739 250.418 C 163.496 254.809, 161.084 257.808, 175.822 254.045 C 206.736 246.152, 232.436 225.110, 246.105 196.500 C 259.740 167.962, 260.391 137.139, 247.983 107.554 C 243.057 95.809, 226.054 71.587, 226.015 76.259 M 32.688 85.009 C 30.178 89.478, 30.057 90.085, 31.562 90.662 C 32.606 91.063, 33.597 90.685, 34.165 89.669 C 34.982 88.210, 35.693 88.374, 40.639 91.165 C 45.061 93.661, 46.366 94.025, 47.032 92.948 C 48.189 91.076, 47.644 90.476, 42.008 87.408 C 37.945 85.197, 37.240 84.420, 38.003 82.994 C 38.513 82.042, 38.645 80.979, 38.298 80.631 C 36.814 79.147, 35.330 80.305, 32.688 85.009 M 97 94 C 97 102.933, 97.019 103, 99.500 103 C 101.833 103, 102 102.667, 102 98 C 102 95.250, 102.316 93, 102.702 93 C 103.089 93, 104.889 94.438, 106.702 96.196 L 110 99.392 113.500 96 L 117 92.608 117 97.804 C 117 102.911, 117.052 103, 120 103 L 123 103 123 94 L 123 85 119.696 85 C 117.232 85, 115.529 85.891, 112.994 88.506 L 109.596 92.012 106.006 88.506 C 103.691 86.245, 101.454 85, 99.708 85 L 97 85 97 94 M 127.500 94 L 127.500 103 130.250 103 L 133 103 133 94 L 133 85 130.250 85 L 127.500 85 127.500 94 M 141.223 93.515 C 138.900 98.198, 137 102.248, 137 102.515 C 137 103.322, 142.999 103.058, 143.015 102.250 C 143.024 101.838, 143.450 100.837, 143.963 100.026 C 144.747 98.786, 145.313 98.945, 147.532 101.026 L 150.170 103.500 152.206 101 L 154.242 98.500 155.743 100.750 C 156.682 102.157, 158.255 103, 159.944 103 L 162.644 103 158.342 94 L 154.039 85 149.742 85 L 145.446 85 141.223 93.515 M 166 94 L 166 103 169 103 C 171.933 103, 172 102.889, 172 98 C 172 95.250, 172.254 93, 172.565 93 C 172.875 93, 174.265 94.350, 175.653 96 C 177.042 97.650, 178.773 99, 179.500 99 C 180.227 99, 181.958 97.650, 183.347 96 C 184.735 94.350, 186.125 93, 186.435 93 C 186.746 93, 187 95.250, 187 98 C 187 102.667, 187.167 103, 189.500 103 C 191.981 103, 192 102.933, 192 94 L 192 85 189.292 85 C 187.546 85, 185.309 86.245, 182.994 88.506 L 179.404 92.012 176.006 88.506 C 173.471 85.891, 171.768 85, 169.304 85 L 166 85 166 94 M 197 94 L 197 103 200 103 L 203 103 203 94 L 203 85 200 85 L 197 85 197 94 M 260.335 90.799 L 253.169 94.500 255.210 98.500 C 257.770 103.518, 257.611 103.363, 259.492 102.642 C 260.917 102.095, 260.922 101.749, 259.539 99.075 C 258.456 96.982, 258.332 95.913, 259.115 95.429 C 260.127 94.804, 261.465 96.067, 262.294 98.430 C 262.473 98.941, 263.400 99.061, 264.353 98.695 C 265.782 98.146, 265.887 97.657, 264.950 95.907 C 264.188 94.482, 264.146 93.454, 264.822 92.778 C 265.499 92.101, 266.353 92.782, 267.423 94.851 C 268.468 96.873, 269.528 97.734, 270.508 97.359 C 271.329 97.044, 272 96.366, 272 95.853 C 272 94.902, 268.147 86.959, 267.730 87.049 C 267.603 87.077, 264.276 88.764, 260.335 90.799 M 148.256 91.337 C 147.349 93.328, 147.402 94.089, 148.512 95.010 C 151.395 97.403, 153.124 93.920, 150.700 90.604 C 149.486 88.945, 149.324 88.993, 148.256 91.337 M 25.368 100.483 C 24.567 102.571, 25.648 103.764, 29.011 104.503 C 33.208 105.424, 32.734 106.535, 27.519 107.995 C 22.757 109.328, 20.068 111.544, 21.592 112.881 C 22.700 113.852, 34.255 118, 35.853 118 C 36.484 118, 37 117.171, 37 116.158 C 37 114.858, 35.751 113.942, 32.755 113.045 L 28.511 111.773 34.005 109.740 C 38.911 107.924, 40.938 106.546, 40.985 104.994 C 40.993 104.716, 37.605 103.268, 33.457 101.776 C 27.267 99.549, 25.815 99.318, 25.368 100.483 M 148.462 117.250 C 147.383 122.278, 147.009 122.401, 143.406 118.909 L 140.038 115.644 141.019 119.065 C 142.462 124.097, 142.344 124.287, 138.250 123.523 L 134.500 122.823 136.921 125.408 C 139.677 128.351, 139.702 128.285, 135 130.321 L 131.500 131.837 135.629 131.918 C 139.252 131.990, 139.911 132.372, 141.016 135.040 C 142.686 139.071, 145.637 141, 150.134 141 C 153.025 141, 154.382 140.335, 156.411 137.923 C 160.216 133.402, 159.710 131.392, 155.559 134.532 C 152.698 136.696, 145.774 136.396, 142.696 133.975 C 140.409 132.176, 140.238 131.617, 141.164 128.960 C 143.430 122.460, 151.060 120.906, 156.077 125.923 C 157.685 127.531, 159 129.556, 159 130.423 C 159 131.624, 160.012 131.981, 163.250 131.918 L 167.500 131.837 164 130.321 C 159.298 128.285, 159.323 128.351, 162.079 125.408 L 164.500 122.823 160.641 123.543 C 157.035 124.216, 156.822 124.124, 157.391 122.132 C 159.385 115.152, 159.455 115.286, 155.687 118.876 L 152.145 122.252 151.034 118.126 C 150.423 115.857, 149.751 114, 149.541 114 C 149.331 114, 148.845 115.463, 148.462 117.250 M 115 117.064 C 114.175 117.584, 109.900 118.634, 105.500 119.396 L 97.500 120.782 109.128 120.891 C 117.986 120.974, 121.043 121.347, 121.964 122.456 C 123.805 124.675, 122.539 125.671, 116.930 126.415 C 110.098 127.321, 107 130.358, 107 136.149 C 107 140.326, 107.301 140.691, 127.250 160.738 L 147.500 181.088 147.820 177.377 C 148.128 173.809, 147.612 173.137, 134.334 159.833 C 126.740 152.225, 121.189 146, 121.999 146 C 122.809 146, 128.990 151.506, 135.736 158.235 L 148 170.470 148 166.963 C 148 163.892, 146.943 162.405, 139.500 155 C 134.825 150.349, 131 146.211, 131 145.803 C 131 144.010, 135.004 146.767, 141.250 152.861 C 146.975 158.446, 148 159.104, 148 157.191 C 148 151.555, 141.728 143.340, 135.685 141.061 C 134.137 140.478, 128.881 140, 124.006 140 C 117.282 140, 114.764 139.621, 113.571 138.429 C 112.707 137.564, 112 136.471, 112 136 C 112 133.969, 115.414 132, 118.937 132 C 124.494 132, 128 128.900, 128 123.986 C 128 121.859, 127.462 119.786, 126.805 119.380 C 126.049 118.912, 126.874 118.185, 129.055 117.397 C 132.314 116.219, 132.069 116.151, 124.500 116.135 C 120.100 116.125, 115.825 116.543, 115 117.064 M 169.767 117.123 C 172.577 117.934, 172.892 118.333, 172.017 119.967 C 170.457 122.883, 170.802 126.534, 172.880 129.100 C 174.268 130.814, 176.138 131.563, 180.027 131.961 C 185.948 132.567, 188.301 134.708, 186.391 137.750 C 185.498 139.171, 183.337 139.600, 174.896 140.029 C 161.198 140.726, 156.219 143.445, 152.548 152.232 C 149.475 159.585, 150.741 159.704, 157.775 152.723 C 161.501 149.025, 165.430 146, 166.504 146 C 167.928 146, 166.089 148.380, 159.729 154.770 C 152.124 162.411, 151 163.986, 151 167.005 L 151 170.470 163.250 158.369 C 174.252 147.501, 179 143.703, 179 145.769 C 179 146.157, 172.666 152.820, 164.925 160.576 C 152.052 173.472, 150.877 174.948, 151.175 177.860 C 151.493 180.980, 151.916 180.628, 171.977 160.536 C 191.806 140.677, 192.455 139.900, 192.455 136.014 C 192.455 130.337, 189.064 127.150, 182.154 126.332 C 177.540 125.785, 176.936 125.453, 177.199 123.605 C 177.481 121.631, 178.249 121.469, 189.500 121 L 201.500 120.500 193.234 119.128 C 188.687 118.374, 184.723 117.361, 184.425 116.878 C 184.126 116.395, 179.971 116.041, 175.191 116.090 C 168.010 116.165, 167.068 116.344, 169.767 117.123 M 272.500 117.986 C 270.850 118.430, 268.262 119.073, 266.750 119.415 C 264.922 119.829, 264 120.681, 264 121.956 C 264 123.590, 264.519 123.790, 267.500 123.306 C 270.583 122.806, 271 122.992, 271 124.869 C 271 126.370, 271.624 127, 273.108 127 C 274.844 127, 275.109 126.569, 274.605 124.561 C 273.691 120.921, 275.883 120.367, 277.124 123.925 C 277.713 125.616, 278.886 127, 279.729 127 C 280.944 127, 281.133 126.222, 280.642 123.250 C 280.301 121.188, 280.017 118.938, 280.011 118.250 C 279.999 116.863, 277.065 116.760, 272.500 117.986 M 18.183 126.710 C 18.510 128.408, 20.727 129.132, 29.734 130.483 C 33.521 131.051, 34 130.903, 34 129.164 C 34 127.541, 32.913 127.016, 27.668 126.103 C 19.007 124.594, 17.790 124.672, 18.183 126.710 M 273.500 135.733 C 269.312 136.339, 267 138.746, 267 142.500 C 267 147.531, 269.611 149.156, 277.125 148.801 C 282.239 148.559, 283.545 148.158, 283.813 146.750 C 284.103 145.229, 283.299 145, 277.680 145 C 273.196 145, 271.056 144.589, 270.700 143.659 C 269.713 141.089, 271.845 139.677, 277.408 139.216 C 282.046 138.831, 283 138.432, 283 136.876 C 283 134.934, 280.832 134.673, 273.500 135.733 M 284 141.878 C 284 143.138, 286.935 145.398, 287.648 144.686 C 288.672 143.662, 287.143 141, 285.531 141 C 284.689 141, 284 141.395, 284 141.878 M 24.498 152.004 C 24.157 152.556, 22.873 152.755, 21.645 152.447 C 18.314 151.611, 15.792 154.903, 16.184 159.575 L 16.500 163.347 23.965 163.099 C 28.071 162.963, 31.785 162.633, 32.218 162.366 C 33.207 161.754, 32.065 153.928, 30.741 152.250 C 29.561 150.754, 25.372 150.589, 24.498 152.004 M 26 157 C 26 158.111, 26.667 159, 27.500 159 C 28.333 159, 29 158.111, 29 157 C 29 155.889, 28.333 155, 27.500 155 C 26.667 155, 26 155.889, 26 157 M 20 157.417 C 20 158.287, 20.712 159, 21.583 159 C 22.454 159, 22.989 158.466, 22.771 157.813 C 22.153 155.958, 20 155.651, 20 157.417 M 279.756 158.824 C 279.342 160.407, 278.457 160.588, 273.042 160.197 C 267.356 159.785, 266.836 159.912, 267.161 161.623 C 267.443 163.110, 268.659 163.604, 273.009 164 C 277.806 164.437, 278.541 164.792, 278.827 166.808 C 279.044 168.338, 279.719 169.010, 280.827 168.799 C 283.101 168.366, 283.909 157, 281.667 157 C 280.878 157, 280.019 157.821, 279.756 158.824 M 123 166.675 C 123 172.263, 123.224 172.813, 127 176.500 L 131 180.406 131 201.703 L 131 223 127 223 C 124.467 223, 123 223.458, 122.999 224.250 C 122.999 225.108, 124.646 225.460, 128.249 225.371 L 133.500 225.243 134 204.590 L 134.500 183.937 140.959 190.456 L 147.417 196.975 143.992 200.508 L 140.568 204.041 145.061 208.535 L 149.555 213.029 153.980 208.521 L 158.404 204.012 154.994 200.493 L 151.583 196.975 158.013 190.487 C 161.549 186.919, 164.793 184, 165.221 184 C 165.650 184, 166 193.474, 166 205.052 L 166 226.105 171.171 225.802 C 177.675 225.422, 178.869 223.247, 172.813 222.811 L 168.500 222.500 168.230 201.729 L 167.959 180.958 172.480 176.125 C 176.648 171.669, 177 170.885, 177 166.063 C 177 159.497, 174.654 159.509, 174.183 166.078 C 173.984 168.859, 173.085 171.335, 171.759 172.750 C 168.920 175.781, 168 175.583, 168 171.941 C 168 170.156, 167.583 169.139, 167 169.500 C 166.450 169.840, 166 172.014, 166 174.331 C 166 178.279, 165.480 179.062, 157.728 186.773 L 149.456 195.003 141.728 187.229 C 134.608 180.067, 134 179.133, 134 175.350 C 134 172.921, 133.388 170.737, 132.500 170 C 131.211 168.931, 131 169.290, 131 172.552 L 131 176.349 128.500 174 C 126.602 172.217, 126 170.639, 126 167.448 C 126 164.932, 125.398 162.745, 124.500 162 C 123.195 160.917, 123 161.526, 123 166.675 M 23 173.396 C 17.094 174.971, 16.734 177.661, 22.500 177.135 C 31.143 176.346, 31.486 176.402, 31.804 178.633 C 32.036 180.259, 31.346 181.032, 28.905 181.883 C 27.143 182.497, 24.981 183.007, 24.101 183.015 C 21.541 183.040, 19.883 184.531, 20.533 186.224 C 21.063 187.606, 21.793 187.635, 26.794 186.473 C 35.600 184.426, 38.448 179.357, 33.545 174.455 C 30.842 171.751, 29.628 171.629, 23 173.396 M 264.109 177.117 C 261.847 183.606, 263.449 187.438, 268.197 186.892 C 269.464 186.746, 271.496 186.961, 272.712 187.369 C 276.035 188.483, 278.620 186.537, 279.755 182.066 C 280.881 177.630, 281.389 178.086, 273 176 C 270.525 175.385, 267.762 174.668, 266.859 174.408 C 265.711 174.077, 264.886 174.889, 264.109 177.117 M 267 181.083 C 267 183.520, 269.337 183.176, 269.823 180.667 C 270.015 179.680, 269.505 179, 268.573 179 C 267.646 179, 267 179.855, 267 181.083 M 273.500 181 C 273.101 181.646, 273.224 182.624, 273.774 183.174 C 274.441 183.841, 275.016 183.783, 275.500 183 C 275.899 182.354, 275.776 181.376, 275.226 180.826 C 274.559 180.159, 273.984 180.217, 273.500 181 M 36.300 189.646 C 35.448 189.992, 35.376 190.858, 36.050 192.632 C 37.485 196.405, 37.362 196.594, 32.250 198.496 C 26.350 200.691, 25.239 201.639, 26.770 203.170 C 27.663 204.063, 29.603 203.687, 34.970 201.581 C 38.836 200.064, 42 198.541, 42 198.195 C 42 196.786, 38.684 189.006, 38.114 189.079 C 37.776 189.122, 36.960 189.377, 36.300 189.646 M 259.942 195.472 C 252.491 199.524, 255.283 211, 263.720 211 C 272.522 211, 275.168 199.345, 267.316 195.163 C 264.538 193.684, 263.119 193.743, 259.942 195.472 M 260.496 200.004 C 258.981 201.678, 258.875 202.429, 259.849 204.567 C 260.796 206.647, 261.601 207.067, 264.149 206.813 C 268.343 206.394, 269.821 202.821, 266.976 199.976 C 264.471 197.471, 262.782 197.479, 260.496 200.004 M 147.075 202.085 L 144.650 204.104 147.125 206.579 L 149.600 209.055 151.965 206.538 C 154.260 204.094, 154.276 203.963, 152.509 202.010 C 150.290 199.558, 150.107 199.561, 147.075 202.085 M 42 208.772 C 42 209.836, 43.106 211.183, 44.500 211.818 C 47.696 213.274, 47.853 217.289, 44.796 219.430 C 42.919 220.745, 42.290 220.773, 40.546 219.617 C 39.421 218.872, 38.271 216.965, 37.990 215.381 C 37.278 211.359, 34.586 211.608, 34.188 215.733 C 33.492 222.945, 43.211 226.880, 48.545 221.545 C 51.666 218.425, 51.750 213.937, 48.750 210.637 C 45.654 207.231, 42 206.222, 42 208.772 M 246.397 216.976 C 244.256 220.211, 243.941 221.337, 244.907 222.290 C 245.870 223.240, 246.565 222.912, 248.136 220.770 L 250.138 218.040 255.238 221.474 C 260.260 224.857, 262 225.142, 262 222.583 C 262 221.556, 253.043 214.654, 249.807 213.186 C 249.426 213.013, 247.891 214.718, 246.397 216.976 M 73 243 C 72.956 246.553, 71.977 247.683, 67.998 248.768 L 64.500 249.723 68.174 250.458 C 71.345 251.093, 71.973 251.694, 72.770 254.847 L 73.694 258.500 74.647 255.050 C 75.409 252.294, 76.294 251.409, 79.050 250.647 L 82.500 249.694 78.750 248.747 C 75.881 248.024, 74.996 247.296, 74.985 245.651 C 74.976 244.468, 74.533 242.825, 74 242 C 73.231 240.810, 73.024 241.017, 73 243 M 224.681 244.157 C 224.043 247.324, 223.445 247.941, 220.222 248.756 L 216.500 249.696 220.156 250.442 C 223.364 251.096, 223.901 251.636, 224.532 254.844 L 225.250 258.500 226.442 255.067 C 227.327 252.516, 228.516 251.336, 231.067 250.476 L 234.500 249.319 230.923 248.647 C 227.832 248.066, 227.215 247.467, 226.382 244.237 L 225.417 240.500 224.681 244.157 M 107.042 267.858 C 104.607 276.037, 104.571 276.621, 106.468 277.349 C 108.202 278.015, 108.539 277.554, 109.462 273.250 C 110.132 270.124, 111.984 268.674, 112.015 271.250 C 112.024 271.938, 112.417 273.110, 112.890 273.855 C 113.595 274.968, 114.241 274.888, 116.497 273.410 L 119.245 271.610 118.513 275.055 C 117.390 280.339, 117.392 280.357, 119.163 280.747 C 120.419 281.024, 121.197 279.817, 122.349 275.806 C 125.388 265.224, 125.407 265, 123.243 265 C 122.158 265, 120.088 265.929, 118.645 267.065 C 115.595 269.464, 114.487 269.075, 113.531 265.269 C 112.886 262.699, 111.438 261.051, 109.792 261.015 C 109.403 261.007, 108.166 264.086, 107.042 267.858 M 186.385 261.765 C 185.771 262.169, 184.954 263.512, 184.567 264.750 C 183.748 267.375, 182.733 267.588, 181 265.500 C 179.692 263.923, 176.829 263.504, 175.621 264.712 C 175.230 265.104, 176.544 266.796, 178.542 268.474 L 182.174 271.524 180.462 275.803 C 179.520 278.157, 178.967 280.300, 179.232 280.565 C 180.338 281.671, 182.931 279.637, 183.878 276.920 C 185.013 273.663, 186.150 273.271, 188 275.500 C 189.327 277.099, 194 277.589, 194 276.129 C 194 275.650, 192.428 274.187, 190.507 272.879 C 186.589 270.210, 186.390 269.397, 188.449 264.468 C 189.905 260.984, 189.123 259.961, 186.385 261.765 M 164.818 268.500 C 163.441 271.522, 162.845 271.591, 160.500 269 C 158.829 267.154, 155 266.192, 155 267.618 C 155 267.958, 156.356 269.780, 158.013 271.668 L 161.026 275.099 158.418 279.550 C 155.838 283.953, 155.833 284, 157.951 284 C 159.274 284, 160.741 282.870, 161.789 281.045 L 163.485 278.090 166.183 280.675 C 167.890 282.311, 169.489 283.026, 170.538 282.624 C 171.957 282.079, 171.749 281.478, 169.098 278.459 C 165.438 274.290, 165.453 274.409, 168.004 270.226 C 170.475 266.173, 170.473 266, 167.979 266 C 166.793 266, 165.486 267.033, 164.818 268.500 M 131.642 273.147 C 130.677 282.383, 130.762 283, 133 283 C 134.667 283, 135 282.333, 135 279 C 135 274.414, 136.067 273.888, 138.009 277.517 L 139.356 280.033 141.931 277.566 L 144.507 275.099 144.153 279.549 C 143.837 283.517, 144.027 284, 145.899 284 C 147.522 284, 148.002 283.375, 148.009 281.250 C 148.013 279.738, 148.301 276.137, 148.648 273.250 C 149.228 268.419, 149.115 268, 147.228 268 C 146.100 268, 144.016 269.381, 142.596 271.069 L 140.014 274.137 137.908 270.569 C 134.566 264.904, 132.411 265.791, 131.642 273.147" stroke="none" fill="#070707" fill-rule="evenodd"/></svg>