<?xml version="1.0" standalone="no"?>
<!DOCTYPE svg PUBLIC "-//W3C//DTD SVG 20010904//EN"
 "http://www.w3.org/TR/2001/REC-SVG-20010904/DTD/svg10.dtd">
<svg version="1.0" xmlns="http://www.w3.org/2000/svg"
 width="1000.000000pt" height="422.000000pt" viewBox="0 0 1000.000000 422.000000"
 preserveAspectRatio="xMidYMid meet">

<g transform="translate(0.000000,422.000000) scale(0.100000,-0.100000)"
fill="#000000" stroke="none">
<path d="M1501 4093 c-23 -65 -56 -158 -73 -208 -17 -49 -35 -94 -39 -99 -4
-4 -105 58 -224 138 -120 81 -220 145 -223 142 -4 -4 33 -261 55 -381 l6 -30
-24 21 c-58 51 -299 197 -299 180 0 -2 21 -34 46 -72 49 -71 114 -204 153
-310 l23 -62 105 50 c385 182 814 233 1232 147 51 -10 99 -19 105 -19 7 0 17
34 25 88 15 106 44 222 77 310 13 36 22 67 19 70 -2 3 -63 -53 -134 -125
l-130 -129 -5 50 c-3 28 -11 118 -17 201 -5 82 -12 151 -13 153 -2 1 -85 -85
-186 -193 -100 -108 -183 -195 -185 -193 -1 2 -55 86 -120 188 -64 102 -121
189 -125 193 -4 5 -26 -45 -49 -110z"/>
<path d="M1620 3529 c-170 -19 -367 -73 -537 -146 l-85 -36 45 -12 c63 -16
120 -56 162 -113 48 -66 45 -76 -16 -46 -55 28 -144 41 -204 30 -53 -10 -127
-86 -144 -148 -20 -72 -10 -199 22 -278 14 -35 25 -65 23 -67 -8 -8 -81 58
-107 97 -60 89 -78 240 -40 340 l19 50 -41 -30 c-60 -43 -182 -155 -252 -230
-87 -93 -151 -180 -223 -300 -72 -120 -77 -109 56 -130 72 -12 73 -12 57 -33
-128 -175 -220 -349 -284 -543 -40 -120 -81 -317 -69 -330 4 -3 73 14 155 38
81 25 149 41 151 38 1 -4 -2 -27 -8 -51 -6 -24 -14 -136 -17 -249 -6 -230 10
-401 53 -567 28 -108 81 -233 99 -233 21 0 179 144 261 238 43 48 117 141 166
207 49 66 93 121 97 123 5 2 11 -7 14 -20 3 -13 15 -68 28 -123 19 -86 23
-128 23 -305 0 -182 -3 -223 -28 -365 -16 -88 -29 -167 -30 -175 -1 -19 154
-86 272 -116 355 -90 783 -16 1110 192 36 23 54 30 57 22 2 -7 16 -58 30 -113
15 -55 28 -102 30 -103 11 -12 222 156 296 235 63 67 158 197 202 274 78 140
143 339 163 496 l7 58 73 -79 c41 -44 76 -77 78 -75 9 10 38 113 61 214 87
384 40 755 -143 1117 -37 73 -96 178 -132 233 l-65 99 -9 -54 -8 -55 -70 74
-69 74 27 22 c27 21 27 24 16 62 -14 48 -48 93 -68 93 -20 0 -88 -35 -103 -54
-12 -14 -18 -12 -57 15 -39 26 -104 59 -118 59 -3 0 17 -29 44 -64 26 -36 51
-73 54 -83 3 -11 45 -51 94 -90 48 -39 107 -92 132 -118 l45 -46 -45 17 c-65
25 -293 26 -372 1 l-57 -17 -128 131 c-70 72 -130 135 -132 140 -7 20 10 78
34 113 23 35 24 36 4 36 -26 0 -84 -25 -116 -50 -25 -20 -26 -20 -57 -1 -53
33 -134 71 -192 91 -48 17 -63 18 -103 9 -56 -14 -165 -70 -212 -108 l-34 -28
80 -40 c103 -51 115 -54 266 -58 90 -2 135 -8 157 -19 34 -18 269 -242 262
-250 -3 -2 -32 2 -65 10 -42 9 -126 14 -280 14 -239 0 -303 9 -381 55 -90 53
-157 140 -170 224 l-6 40 -57 7 c-89 10 -93 16 -41 64 61 57 121 97 180 122
l49 20 -39 32 c-21 17 -39 34 -39 38 -1 10 103 79 164 110 77 39 215 85 305
102 l82 16 87 -45 c47 -25 131 -74 185 -110 54 -36 101 -65 106 -65 12 0 40
76 47 126 3 24 8 44 11 44 2 0 32 -14 66 -31 120 -61 274 -170 374 -263 28
-27 52 -46 52 -44 0 3 -19 52 -41 109 -23 56 -47 134 -53 173 l-12 70 -70 53
c-106 82 -307 173 -456 207 l-26 6 18 -48 c10 -26 21 -70 25 -97 l8 -50 -54
56 c-69 71 -153 137 -204 160 -34 16 -64 18 -190 17 -82 0 -184 -4 -225 -9z
m860 -1263 c28 -18 80 -46 115 -62 l64 -29 1 -117 0 -118 -79 -62 c-147 -117
-297 -195 -406 -211 -22 -4 -45 -3 -51 1 -6 4 -54 87 -108 186 -81 148 -96
181 -84 191 67 65 337 212 438 239 30 8 56 15 57 15 1 1 24 -14 53 -33z m512
-38 c61 -164 63 -358 5 -499 l-13 -33 -31 51 c-17 28 -59 82 -92 121 l-61 71
0 115 0 114 70 47 c38 25 72 51 76 56 11 19 29 2 46 -43z m-173 -565 c48 -58
75 -134 66 -188 -12 -81 -87 -214 -157 -281 l-63 -59 -2 45 c-3 52 -23 187
-30 207 -4 9 -13 6 -36 -13 -36 -30 -133 -80 -203 -104 l-51 -18 -61 112 -61
111 52 16 c76 23 161 69 252 135 73 53 86 59 145 65 120 11 116 12 149 -28z"/>
<path d="M3940 2811 l0 -701 135 0 135 0 0 230 0 230 128 0 c77 0 152 6 190
15 228 54 355 218 356 460 0 113 -21 184 -77 267 -52 75 -138 138 -235 170
-61 20 -90 22 -349 26 l-283 4 0 -701z m557 411 c54 -28 91 -77 102 -135 17
-95 -16 -174 -94 -222 -46 -28 -55 -30 -172 -34 l-123 -3 0 212 0 212 123 -4
c102 -3 129 -7 164 -26z"/>
<path d="M8110 3448 c-55 -29 -84 -75 -84 -138 0 -91 61 -150 157 -150 98 0
162 68 154 163 -10 115 -125 178 -227 125z"/>
<path d="M5945 3050 c-116 -21 -206 -70 -280 -152 -165 -184 -163 -484 5 -662
177 -187 513 -196 719 -18 l45 39 -21 29 c-12 16 -46 53 -76 82 l-54 54 -46
-35 c-71 -54 -122 -70 -215 -66 -70 4 -86 8 -124 34 -47 34 -88 88 -88 116 0
18 16 19 335 19 l335 0 0 74 c0 99 -14 169 -50 241 -40 82 -83 131 -154 177
-95 61 -222 87 -331 68z m175 -242 c45 -24 93 -76 105 -115 l6 -23 -210 0
c-141 0 -211 3 -211 10 0 20 28 65 57 92 64 61 173 76 253 36z"/>
<path d="M6988 3046 c-55 -15 -112 -56 -138 -98 l-18 -31 -11 39 c-6 22 -11
47 -11 57 0 15 -12 17 -115 17 l-115 0 0 -460 0 -460 124 0 125 0 3 298 c3
253 5 301 19 327 24 43 52 66 96 75 81 19 153 -27 172 -110 6 -25 11 -167 11
-317 l0 -273 125 0 125 0 0 293 c0 265 2 296 19 334 24 51 68 76 134 77 56 0
93 -24 119 -75 16 -30 18 -68 18 -332 l0 -298 128 3 127 3 -1 335 c0 324 -1
337 -23 393 -35 89 -77 137 -154 177 -61 31 -76 34 -150 34 -100 0 -172 -29
-235 -95 l-42 -43 -35 41 c-67 78 -197 117 -297 89z"/>
<path d="M8835 3053 c-149 -18 -272 -91 -347 -207 -104 -161 -107 -391 -6
-549 153 -240 548 -279 772 -75 l47 43 -80 79 -79 79 -42 -36 c-121 -103 -326
-87 -401 31 -16 25 -29 52 -29 59 0 10 66 13 335 13 l335 0 0 94 c0 198 -91
351 -253 426 -56 26 -168 52 -207 48 -8 0 -28 -3 -45 -5z m133 -239 c57 -24
122 -94 122 -134 0 -7 -70 -10 -211 -10 l-210 0 6 23 c12 39 60 91 105 115 53
26 133 29 188 6z"/>
<path d="M5368 3030 c-47 -14 -97 -50 -123 -88 -26 -39 -28 -37 -42 38 l-9 45
-112 3 -112 3 0 -461 0 -461 128 3 127 3 5 275 c4 235 8 280 22 306 40 73 121
111 216 101 l52 -6 0 125 0 124 -62 -1 c-35 0 -75 -4 -90 -9z"/>
<path d="M9836 3030 c-43 -13 -99 -56 -120 -91 -22 -37 -32 -28 -41 43 l-7 48
-114 0 -114 0 2 -457 3 -458 128 -3 127 -3 0 257 c0 163 4 271 11 295 29 95
117 147 231 135 l59 -6 -3 123 -3 122 -65 2 c-36 1 -78 -2 -94 -7z"/>
<path d="M8050 2570 l0 -461 128 3 127 3 3 458 2 457 -130 0 -130 0 0 -460z"/>
<path d="M3940 1285 l0 -685 430 0 430 0 0 130 0 130 -295 0 -295 0 0 555 0
555 -135 0 -135 0 0 -685z"/>
<path d="M5231 1535 c-175 -40 -300 -156 -353 -328 -17 -57 -20 -87 -16 -176
4 -95 8 -115 37 -176 40 -87 86 -143 153 -187 81 -53 160 -79 263 -85 151 -9
289 38 392 132 l44 40 -80 80 -81 79 -27 -26 c-70 -65 -210 -97 -298 -68 -60
20 -145 107 -145 150 0 7 107 10 334 10 l333 0 6 43 c11 81 -15 213 -58 297
-23 44 -90 116 -142 152 -95 65 -242 90 -362 63z m226 -248 c37 -25 83 -90 83
-116 0 -12 -401 -17 -413 -5 -10 10 12 57 41 88 46 48 97 67 178 64 58 -3 78
-8 111 -31z"/>
<path d="M9450 1539 c-30 -5 -87 -25 -126 -44 -236 -115 -332 -415 -212 -663
31 -64 119 -154 186 -190 125 -67 301 -79 440 -32 60 21 202 113 209 136 2 6
-30 46 -70 89 l-74 79 -42 -33 c-81 -64 -197 -88 -292 -60 -52 16 -108 65
-130 113 l-18 41 337 5 337 5 3 70 c10 238 -134 434 -355 480 -75 16 -112 17
-193 4z m178 -234 c20 -9 47 -26 60 -38 28 -26 64 -92 55 -101 -4 -3 -98 -6
-210 -6 -191 0 -203 1 -203 18 0 32 56 98 101 120 53 26 144 29 197 7z"/>
<path d="M6242 1525 c-165 -37 -301 -175 -347 -350 -65 -250 102 -527 354
-585 117 -27 259 8 334 84 25 24 39 32 42 24 2 -7 9 -32 15 -55 l11 -43 109 0
110 0 0 460 0 461 -112 -3 -112 -3 -8 -40 c-13 -65 -14 -65 -61 -20 -74 70
-209 99 -335 70z m212 -229 c105 -32 168 -121 167 -236 -1 -221 -270 -318
-413 -150 -117 136 -48 348 127 391 47 11 68 10 119 -5z"/>
<path d="M7360 1530 c-233 -44 -389 -231 -390 -465 0 -311 267 -537 559 -474
28 6 77 28 111 50 l60 39 0 -43 c0 -134 -71 -214 -208 -236 -108 -17 -217 14
-311 88 l-36 29 -68 -94 c-37 -52 -67 -99 -67 -104 0 -14 120 -96 173 -119 26
-11 84 -28 129 -37 239 -49 484 46 581 225 53 96 57 143 57 659 l0 472 -113 0
-114 0 -12 -55 -12 -55 -25 30 c-59 69 -204 111 -314 90z m219 -250 c145 -75
175 -264 61 -382 -173 -179 -466 -5 -396 235 42 143 204 215 335 147z"/>
<path d="M8072 1223 c4 -275 6 -303 26 -363 56 -165 192 -263 384 -277 191
-14 363 71 437 215 45 88 51 139 51 439 l0 283 -124 0 -125 0 -3 -272 c-4
-304 -7 -319 -72 -376 -102 -89 -271 -48 -305 73 -7 25 -11 144 -11 308 l0
267 -131 0 -131 0 4 -297z"/>
</g>
</svg>
